<svg width="148" height="48" viewBox="0 0 148 48" fill="none" xmlns="http://www.w3.org/2000/svg">
  <rect x="1" y="1" width="146" height="46" rx="6" fill="#111111" stroke="#555555"/>
  <path d="M27.3 14.5c.9-1.1 1.6-2.6 1.4-4.1-1.4.1-3 .9-3.9 2-.9 1-1.7 2.5-1.5 4 1.5.1 3.1-.8 4-1.9Z" fill="#FFFFFF"/>
  <path d="M34 31.4c-.7 1.6-1.1 2.3-2 3.7-1.3 1.9-3.1 4.2-5.3 4.2-2 0-2.5-1.2-5.1-1.2-2.7 0-3.2 1.2-5.2 1.2-2.2 0-3.9-2.1-5.2-4-3.6-5.2-4-11.4-1.8-14.6 1.6-2.3 4-3.6 6.4-3.6 2.5 0 4.1 1.3 6.1 1.3 2 0 3.2-1.3 6.1-1.3 2.2 0 4.5 1.1 6.1 3.1-5.4 2.8-4.5 10.1-.1 11.2Z" fill="#FFFFFF"/>
  <text x="48" y="18" fill="#D7D7D7" font-family="Arial, sans-serif" font-size="7" font-weight="700" letter-spacing=".1">Download on the</text>
  <text x="48" y="32" fill="#FFFFFF" font-family="Arial, sans-serif" font-size="15" font-weight="700">App Store</text>
</svg>
