<svg width="819" height="1155" viewBox="0 0 819 1155" fill="none" xmlns="http://www.w3.org/2000/svg">
<g opacity="0.08">
<path d="M-145.029 982.811C-181.959 968.178 -223.225 942.26 -260.554 926.252C-321.588 900.08 -310.217 825.207 -309.85 776.587L-309.477 659.975L-309.732 497.443C-309.799 445.888 -323.088 362.359 -262.074 332.023C-112.507 257.667 37.1219 182.402 189.434 112.099C246.893 85.578 290.582 115.714 338.465 139.206L445.491 191.222L565.301 247.996C585.217 257.414 615.005 270.548 632.651 281.136L633.284 282.383C571.683 396.599 513.908 511.853 453.551 626.515C438.951 654.255 424.707 686.755 407.576 712.815C392.251 719.388 387.037 722.341 373.176 730.872C298.658 676.232 211.284 626.982 129.837 579.03C124.777 562.289 119.339 548.784 98.6263 541.671C87.7293 537.952 75.4754 538.243 64.8438 542.481C54.0234 546.718 45.8659 554.624 42.4071 564.222C36.9433 579.039 43.402 587.891 51.5084 600.917C17.5218 659.898 -14.5976 728.725 -46.1354 789.351C-78.8108 852.171 -115.2 919.473 -145.029 982.811Z" fill="url(#paint0_linear_21_12)"/>
<path d="M666.242 296.365C700.846 317.245 764.273 337.062 775.512 373.474C786.088 407.732 783.042 456.407 783.057 492.07L783.088 773.172C782.996 927.113 779.757 903.097 624.108 979.842C548.141 1017.97 471.567 1055.24 394.411 1091.65C362.082 1107.25 286.936 1147.31 256.169 1153.05C238.916 1156.33 220.917 1155.46 204.225 1150.55C177.095 1142.64 140.808 1122.66 115.03 1110.17C53.6273 1081.05 -7.0199 1050.83 -66.8662 1019.51L-114.341 997.796L16.3044 746.816C35.8383 709.341 69.6105 650.262 84.8234 613.811C91.8278 611.33 105.607 604.718 112.657 604.431C119.616 604.148 339.013 739.819 364.506 754.906C365.388 758.248 366.403 761.56 367.551 764.842C371.245 775.267 377.882 780.902 389.503 785.877C400.977 790.83 414.404 791.507 426.505 787.745C437.489 784.514 446.222 777.388 450.38 768.257C457.602 752.795 451.245 741.065 443.745 727.225C443.642 727.036 443.54 726.846 443.437 726.656C510.808 587.408 593.698 434.473 666.242 296.365Z" fill="url(#paint1_linear_21_12)"/>
<path d="M632.651 281.136L633.284 282.383C571.683 396.599 513.908 511.853 453.551 626.515C438.951 654.255 424.707 686.755 407.576 712.815C392.251 719.388 387.037 722.341 373.176 730.872C298.658 676.232 211.284 626.982 129.837 579.03C124.777 562.289 119.339 548.784 98.6263 541.671C87.7293 537.952 75.4754 538.243 64.8438 542.481C54.0234 546.718 45.8659 554.624 42.4071 564.222C36.9433 579.039 43.402 587.891 51.5084 600.917C17.5218 659.898 -14.5976 728.725 -46.1354 789.351C-78.8108 852.171 -115.2 919.473 -145.029 982.811L-114.341 997.796L16.3044 746.816C35.8383 709.341 69.6105 650.262 84.8234 613.811C91.8278 611.33 105.607 604.718 112.657 604.431C119.616 604.148 339.013 739.819 364.506 754.906C365.388 758.248 366.403 761.56 367.551 764.842C371.245 775.267 377.882 780.902 389.503 785.877C400.977 790.83 414.404 791.507 426.505 787.745C437.489 784.514 446.222 777.388 450.38 768.257C457.602 752.795 451.245 741.065 443.745 727.225L443.437 726.656C510.808 587.408 593.698 434.473 666.242 296.365C684.465 265.454 701.21 233.055 714.816 200.594C731.5 202 728.5 195.5 735.5 189.033C772 188 785.5 188 805 189.033C806.286 117.673 814.5 72.1578 819 0C791.462 17.6702 758.786 41.8937 731.391 60.9046C683.987 94.0478 635.793 126.379 586.823 157.878C616.218 168.608 652.449 179.354 682.834 189.033C664.856 219.241 648.114 249.96 632.651 281.136Z" fill="url(#paint2_linear_21_12)"/>
</g>
<defs>
<linearGradient id="paint0_linear_21_12" x1="733" y1="102" x2="-3.99999" y2="1128.5" gradientUnits="userSpaceOnUse">
<stop stop-color="#55AA35"/>
<stop offset="0.498365" stop-color="#224415" stop-opacity="0"/>
</linearGradient>
<linearGradient id="paint1_linear_21_12" x1="733" y1="102" x2="-3.99999" y2="1128.5" gradientUnits="userSpaceOnUse">
<stop stop-color="#55AA35"/>
<stop offset="0.498365" stop-color="#224415" stop-opacity="0"/>
</linearGradient>
<linearGradient id="paint2_linear_21_12" x1="733" y1="102" x2="-3.99999" y2="1128.5" gradientUnits="userSpaceOnUse">
<stop stop-color="#55AA35"/>
<stop offset="0.498365" stop-color="#224415" stop-opacity="0"/>
</linearGradient>
</defs>
</svg>
