<svg width="167" height="67" viewBox="0 0 167 67" fill="none" xmlns="http://www.w3.org/2000/svg">
<path d="M119.732 57.0116C117.935 56.1627 115.926 54.6592 114.11 53.7306C111.139 52.2124 111.692 47.8691 111.71 45.0488L111.728 38.2843L111.716 28.856C111.713 25.8654 111.066 21.02 114.036 19.2602C121.315 14.9469 128.598 10.5809 136.012 6.50271C138.808 4.96427 140.935 6.71242 143.265 8.07516L148.475 11.0925L154.306 14.3859C155.275 14.9323 156.725 15.6941 157.584 16.3083L157.615 16.3807C154.617 23.0062 151.805 29.6919 148.867 36.3433C148.156 37.9524 147.463 39.8377 146.629 41.3495C145.883 41.7308 145.629 41.902 144.955 42.3969C141.328 39.2273 137.075 36.3704 133.111 33.5888C132.865 32.6177 132.6 31.8342 131.592 31.4216C131.061 31.2058 130.465 31.2228 129.947 31.4686C129.421 31.7144 129.024 32.173 128.855 32.7298C128.589 33.5893 128.904 34.1028 129.298 34.8584C127.644 38.2798 126.081 42.2724 124.546 45.7892C122.955 49.4333 121.184 53.3374 119.732 57.0116Z" fill="#FFB703"/>
<path d="M159.219 17.1917C160.903 18.4029 163.99 19.5525 164.538 21.6648C165.052 23.652 164.904 26.4756 164.905 28.5443L164.906 44.8507C164.902 53.7806 164.744 52.3874 157.168 56.8393C153.471 59.051 149.744 61.2132 145.988 63.3252C144.415 64.2302 140.757 66.5537 139.26 66.887C138.42 67.0769 137.544 67.0267 136.732 66.7419C135.411 66.283 133.645 65.124 132.39 64.3992C129.402 62.7105 126.45 60.9572 123.537 59.1405L121.226 57.8808L127.585 43.3218C128.536 41.1479 130.179 37.7208 130.92 35.6063C131.261 35.4624 131.932 35.0789 132.275 35.0622C132.613 35.0458 143.292 42.9159 144.533 43.7911C144.576 43.9849 144.625 44.1771 144.681 44.3675C144.861 44.9722 145.184 45.2991 145.749 45.5877C146.308 45.875 146.961 45.9142 147.55 45.696C148.085 45.5086 148.51 45.0953 148.712 44.5656C149.064 43.6686 148.755 42.9882 148.39 42.1853C148.385 42.1744 148.38 42.1634 148.375 42.1523C151.654 34.0747 155.688 25.2032 159.219 17.1917Z" fill="#005461"/>
<path d="M157.584 16.3083L157.615 16.3807C154.617 23.0062 151.805 29.6919 148.867 36.3433C148.156 37.9524 147.463 39.8377 146.629 41.3495C145.883 41.7308 145.629 41.902 144.955 42.3969C141.328 39.2273 137.075 36.3704 133.111 33.5888C132.865 32.6177 132.6 31.8342 131.592 31.4216C131.061 31.2058 130.465 31.2228 129.947 31.4686C129.421 31.7144 129.024 32.173 128.855 32.7298C128.589 33.5893 128.904 34.1028 129.298 34.8584C127.644 38.2798 126.081 42.2724 124.546 45.7892C122.955 49.4333 121.184 53.3374 119.732 57.0116L121.226 57.8808L127.585 43.3218C128.536 41.1479 130.179 37.7208 130.92 35.6063C131.261 35.4624 131.932 35.0789 132.275 35.0622C132.613 35.0458 143.292 42.9159 144.533 43.7911C144.576 43.9849 144.625 44.1771 144.681 44.3675C144.861 44.9722 145.184 45.2991 145.749 45.5877C146.308 45.875 146.961 45.9142 147.55 45.696C148.085 45.5086 148.51 45.0953 148.712 44.5656C149.064 43.6686 148.755 42.9882 148.39 42.1853L148.375 42.1523C151.654 34.0747 155.688 25.2032 159.219 17.1917C160.106 15.3986 160.921 13.5192 161.583 11.6362C162.751 11.9981 164.63 12.8444 165.872 13.3114C165.935 9.17186 166.435 4.18578 166.654 0C165.314 1.02503 163.723 2.43019 162.39 3.53299C160.083 5.45558 157.737 7.33107 155.354 9.15829C156.784 9.78071 158.548 10.4041 160.027 10.9656C159.152 12.7179 158.337 14.4999 157.584 16.3083Z" fill="#05668D"/>
<path d="M-4.39882e-05 59.42C0.467956 59.396 0.917956 59.282 1.34996 59.078C1.78196 58.886 2.16596 58.622 2.50196 58.286C2.84996 57.962 3.13796 57.584 3.36596 57.152C3.60596 56.732 3.77396 56.288 3.86996 55.82C3.84596 55.592 3.79796 55.334 3.72596 55.046C3.66596 54.758 3.58796 54.458 3.49196 54.146C3.40796 53.822 3.31196 53.504 3.20396 53.192C3.09596 52.88 2.98796 52.586 2.87996 52.31L3.41996 51.86L3.68996 51.95C3.79796 52.202 3.89996 52.484 3.99596 52.796C4.10396 53.108 4.19396 53.426 4.26596 53.75C4.33796 54.074 4.39196 54.392 4.42796 54.704C4.47596 55.016 4.49996 55.298 4.49996 55.55C4.49996 56.246 4.37396 56.876 4.12196 57.44C3.88196 58.004 3.58796 58.484 3.23996 58.88C2.89196 59.288 2.52596 59.6 2.14196 59.816C1.75796 60.032 1.43396 60.14 1.16996 60.14C1.07396 60.14 0.923956 60.122 0.719956 60.086C0.515956 60.062 0.275956 60.02 -4.39882e-05 59.96V59.42ZM7.16185 48.71C7.14985 48.278 7.13785 47.9 7.12585 47.576C7.11385 47.252 7.08985 46.952 7.05385 46.676C7.02985 46.388 6.98185 46.112 6.90985 45.848C6.84985 45.584 6.76585 45.308 6.65785 45.02L7.37785 44.48C7.64185 45.116 7.79785 45.758 7.84585 46.406C7.89385 47.042 7.91785 47.72 7.91785 48.44V55.874L7.46785 56L7.28785 55.91L7.16185 48.71ZM8.27925 59.42C8.74725 59.396 9.19725 59.282 9.62925 59.078C10.0613 58.886 10.4453 58.622 10.7813 58.286C11.1293 57.962 11.4173 57.584 11.6453 57.152C11.8853 56.732 12.0533 56.288 12.1493 55.82C12.1253 55.592 12.0773 55.334 12.0053 55.046C11.9453 54.758 11.8673 54.458 11.7713 54.146C11.6873 53.822 11.5913 53.504 11.4833 53.192C11.3753 52.88 11.2673 52.586 11.1593 52.31L11.6993 51.86L11.9693 51.95C12.0773 52.202 12.1793 52.484 12.2753 52.796C12.3833 53.108 12.4733 53.426 12.5453 53.75C12.6173 54.074 12.6713 54.392 12.7073 54.704C12.7553 55.016 12.7793 55.298 12.7793 55.55C12.7793 56.246 12.6533 56.876 12.4013 57.44C12.1613 58.004 11.8673 58.484 11.5193 58.88C11.1713 59.288 10.8053 59.6 10.4213 59.816C10.0373 60.032 9.71325 60.14 9.44925 60.14C9.35325 60.14 9.20325 60.122 8.99925 60.086C8.79525 60.062 8.55525 60.02 8.27925 59.96V59.42ZM10.6193 49.7L11.1593 48.8L12.3293 49.52L11.7893 50.42L10.6193 49.7ZM17.9071 56C17.4391 56 17.0491 55.946 16.7371 55.838C16.4251 55.73 16.1731 55.58 15.9811 55.388C15.8011 55.184 15.6691 54.944 15.5851 54.668C15.5131 54.392 15.4771 54.086 15.4771 53.75V48.71C15.4771 48.278 15.4711 47.9 15.4591 47.576C15.4471 47.252 15.4171 46.952 15.3691 46.676C15.3331 46.388 15.2791 46.112 15.2071 45.848C15.1351 45.584 15.0451 45.308 14.9371 45.02L15.6571 44.48C15.9211 45.116 16.0771 45.758 16.1251 46.406C16.1731 47.042 16.1971 47.72 16.1971 48.44V54.38C16.3291 54.62 16.5451 54.8 16.8451 54.92C17.1451 55.04 17.4991 55.1 17.9071 55.1V56ZM17.9022 56C17.8062 56 17.7222 55.958 17.6502 55.874C17.5782 55.79 17.5422 55.682 17.5422 55.55C17.5422 55.406 17.5782 55.298 17.6502 55.226C17.7222 55.142 17.8062 55.1 17.9022 55.1C18.1902 55.1 18.4842 55.094 18.7842 55.082C19.0962 55.07 19.3902 55.046 19.6662 55.01C19.9542 54.974 20.2122 54.932 20.4402 54.884C20.6802 54.824 20.8722 54.746 21.0162 54.65C21.0162 54.494 20.9982 54.272 20.9622 53.984C20.9262 53.696 20.8722 53.384 20.8002 53.048C20.7282 52.712 20.6442 52.37 20.5482 52.022C20.4522 51.662 20.3502 51.338 20.2422 51.05L20.7822 50.6L21.0522 50.69C21.1242 50.846 21.1962 51.056 21.2682 51.32C21.3402 51.584 21.4062 51.866 21.4662 52.166C21.5262 52.466 21.5742 52.766 21.6102 53.066C21.6582 53.354 21.6822 53.612 21.6822 53.84C21.6822 54.296 21.5862 54.674 21.3942 54.974C21.2142 55.274 21.0102 55.484 20.7822 55.604C20.5422 55.736 20.1582 55.838 19.6302 55.91C19.1142 55.97 18.5382 56 17.9022 56ZM19.7742 58.34L19.2342 59.24L18.0642 58.52L18.6042 57.62L19.7742 58.34ZM38.9657 56C38.7977 56 38.6237 55.988 38.4437 55.964C38.2637 55.94 38.0897 55.892 37.9217 55.82C37.7537 55.736 37.5917 55.622 37.4357 55.478C37.2917 55.334 37.1717 55.142 37.0757 54.902C36.9917 55.034 36.9137 55.136 36.8417 55.208C36.7697 55.28 36.6977 55.334 36.6257 55.37C36.2777 55.55 35.7017 55.718 34.8977 55.874C34.0937 56.018 33.0797 56.09 31.8557 56.09C31.2437 56.09 30.6617 56.066 30.1097 56.018C29.5577 55.97 29.0717 55.874 28.6517 55.73C28.2317 55.586 27.8957 55.382 27.6437 55.118C27.3917 54.842 27.2657 54.476 27.2657 54.02C27.2657 53.744 27.2777 53.456 27.3017 53.156C27.3257 52.844 27.3497 52.55 27.3737 52.274C27.4097 51.962 27.4457 51.644 27.4817 51.32L28.1657 51.374C28.1177 51.938 28.0757 52.442 28.0397 52.886C28.0037 53.318 27.9737 53.786 27.9497 54.29C28.0937 54.446 28.2977 54.584 28.5617 54.704C28.8257 54.812 29.1317 54.902 29.4797 54.974C29.8277 55.046 30.1997 55.1 30.5957 55.136C31.0037 55.172 31.4237 55.19 31.8557 55.19C32.3117 55.19 32.7677 55.178 33.2237 55.154C33.6797 55.118 34.1117 55.076 34.5197 55.028C34.9397 54.968 35.3237 54.902 35.6717 54.83C36.0317 54.758 36.3317 54.674 36.5717 54.578L36.9857 52.04H37.6157C37.5917 52.376 37.5737 52.652 37.5617 52.868C37.5497 53.084 37.5377 53.258 37.5257 53.39C37.5257 53.51 37.5257 53.606 37.5257 53.678C37.5257 53.738 37.5257 53.792 37.5257 53.84C37.5257 54.092 37.5677 54.302 37.6517 54.47C37.7357 54.626 37.8437 54.752 37.9757 54.848C38.1197 54.944 38.2757 55.01 38.4437 55.046C38.6237 55.082 38.7977 55.1 38.9657 55.1V56ZM31.0457 48.26L32.2157 48.98L31.6757 49.88L30.5057 49.16L31.0457 48.26ZM32.7557 49.16L33.2957 48.26L34.4657 48.98L33.9257 49.88L32.7557 49.16ZM48.4108 56C47.9788 56 47.5768 55.958 47.2048 55.874C46.8448 55.778 46.5508 55.592 46.3228 55.316C46.2268 55.52 46.1008 55.688 45.9448 55.82C45.8008 55.94 45.6628 56 45.5308 56C45.1948 56 44.8288 55.952 44.4328 55.856C44.0488 55.748 43.6648 55.622 43.2808 55.478C42.9088 55.334 42.5608 55.178 42.2368 55.01C41.9128 54.842 41.6548 54.692 41.4628 54.56C41.2228 54.884 40.9948 55.142 40.7788 55.334C40.5748 55.526 40.3768 55.676 40.1848 55.784C39.9928 55.88 39.7948 55.94 39.5908 55.964C39.3988 55.988 39.1888 56 38.9608 56C38.8648 56 38.7808 55.958 38.7088 55.874C38.6368 55.79 38.6008 55.682 38.6008 55.55C38.6008 55.406 38.6368 55.298 38.7088 55.226C38.7808 55.142 38.8648 55.1 38.9608 55.1C39.2728 55.1 39.5428 55.076 39.7708 55.028C39.9988 54.968 40.2208 54.848 40.4368 54.668C40.6528 54.476 40.8868 54.206 41.1388 53.858C41.4028 53.498 41.7268 53.012 42.1108 52.4C42.2908 52.112 42.4768 51.854 42.6688 51.626C42.8728 51.398 43.1008 51.206 43.3528 51.05C43.6168 50.882 43.9228 50.75 44.2708 50.654C44.6188 50.546 45.0388 50.468 45.5308 50.42L45.8908 50.6C46.0708 51.284 46.2088 51.992 46.3048 52.724C46.4128 53.444 46.5148 54.056 46.6108 54.56C46.7908 54.788 47.0428 54.938 47.3668 55.01C47.7028 55.07 48.0508 55.1 48.4108 55.1V56ZM42.0568 53.66C42.0328 53.696 42.0088 53.732 41.9848 53.768C41.9728 53.804 41.9548 53.834 41.9308 53.858C42.1948 54.038 42.4888 54.206 42.8128 54.362C43.1488 54.518 43.4908 54.656 43.8388 54.776C44.1988 54.884 44.5468 54.98 44.8828 55.064C45.2188 55.136 45.5248 55.178 45.8008 55.19C45.8008 55.01 45.7888 54.782 45.7648 54.506C45.7408 54.218 45.7048 53.906 45.6568 53.57C45.6208 53.234 45.5668 52.88 45.4948 52.508C45.4228 52.136 45.3448 51.77 45.2608 51.41C44.8528 51.458 44.5108 51.512 44.2348 51.572C43.9708 51.62 43.7248 51.716 43.4968 51.86C43.2808 52.004 43.0588 52.22 42.8308 52.508C42.6148 52.784 42.3568 53.168 42.0568 53.66ZM53.4578 56C53.2898 56 53.1158 55.988 52.9358 55.964C52.7678 55.94 52.5998 55.892 52.4318 55.82C52.2638 55.748 52.1078 55.646 51.9638 55.514C51.8198 55.37 51.6998 55.184 51.6038 54.956C51.5438 55.064 51.4718 55.178 51.3878 55.298C51.3038 55.406 51.2138 55.49 51.1178 55.55C50.9378 55.682 50.6198 55.79 50.1638 55.874C49.7198 55.958 49.1378 56 48.4178 56C48.3218 56 48.2378 55.958 48.1658 55.874C48.0938 55.79 48.0578 55.682 48.0578 55.55C48.0578 55.406 48.0938 55.298 48.1658 55.226C48.2378 55.142 48.3218 55.1 48.4178 55.1C49.1378 55.1 49.7078 55.076 50.1278 55.028C50.5478 54.968 50.8478 54.902 51.0278 54.83L51.4778 52.04H52.1078C52.0838 52.376 52.0658 52.652 52.0538 52.868C52.0418 53.084 52.0298 53.258 52.0178 53.39C52.0178 53.51 52.0178 53.606 52.0178 53.678C52.0178 53.738 52.0178 53.792 52.0178 53.84C52.0178 54.092 52.0598 54.302 52.1438 54.47C52.2278 54.626 52.3358 54.752 52.4678 54.848C52.6118 54.944 52.7678 55.01 52.9358 55.046C53.1158 55.082 53.2898 55.1 53.4578 55.1V56ZM52.8278 58.34L52.2878 59.24L51.1178 58.52L51.6578 57.62L52.8278 58.34ZM49.4078 57.62L50.5778 58.34L50.0378 59.24L48.8678 58.52L49.4078 57.62ZM53.4628 56C53.3668 56 53.2828 55.958 53.2108 55.874C53.1388 55.79 53.1028 55.682 53.1028 55.55C53.1028 55.406 53.1388 55.298 53.2108 55.226C53.2828 55.142 53.3668 55.1 53.4628 55.1H54.3628C54.9268 55.1 55.4668 55.082 55.9828 55.046C56.5108 55.01 56.9908 54.962 57.4228 54.902C57.8548 54.83 58.2268 54.746 58.5388 54.65C58.8508 54.554 59.0788 54.446 59.2228 54.326C59.2348 54.062 59.2408 53.798 59.2408 53.534C59.2408 53.27 59.2288 53 59.2048 52.724C58.8208 52.856 58.4248 52.958 58.0168 53.03C57.6208 53.09 57.1528 53.12 56.6128 53.12C55.9288 53.12 55.4248 53 55.1008 52.76C54.7888 52.508 54.6328 52.178 54.6328 51.77C54.6328 51.59 54.6688 51.344 54.7408 51.032C54.8128 50.72 54.8968 50.39 54.9928 50.042C55.0888 49.682 55.1908 49.328 55.2988 48.98C55.4188 48.632 55.5268 48.332 55.6228 48.08C55.6828 48.044 55.7368 48.002 55.7848 47.954C55.8328 47.918 55.8748 47.888 55.9108 47.864C55.9468 47.84 55.9708 47.822 55.9828 47.81C56.8108 47.834 57.4828 48.014 57.9988 48.35C58.5148 48.674 58.9168 49.094 59.2048 49.61C59.4928 50.126 59.6848 50.708 59.7808 51.356C59.8888 52.004 59.9428 52.652 59.9428 53.3C59.9428 53.612 59.9068 53.888 59.8348 54.128C59.7748 54.356 59.6908 54.554 59.5828 54.722C59.4748 54.89 59.3548 55.028 59.2228 55.136C59.1028 55.232 58.9828 55.31 58.8628 55.37C58.5268 55.538 57.9868 55.688 57.2428 55.82C56.4988 55.94 55.5388 56 54.3628 56H53.4628ZM56.7928 52.22C57.2728 52.22 57.7168 52.19 58.1248 52.13C58.5328 52.058 58.8628 51.986 59.1148 51.914C59.0428 51.482 58.9408 51.08 58.8088 50.708C58.6768 50.324 58.4908 49.988 58.2508 49.7C58.0108 49.412 57.7108 49.184 57.3508 49.016C57.0028 48.836 56.5768 48.734 56.0728 48.71C56.0248 48.818 55.9588 49.016 55.8748 49.304C55.8028 49.58 55.7248 49.88 55.6408 50.204C55.5568 50.528 55.4788 50.84 55.4068 51.14C55.3348 51.428 55.2868 51.638 55.2628 51.77C55.3948 51.95 55.5928 52.07 55.8568 52.13C56.1208 52.19 56.4328 52.22 56.7928 52.22ZM56.8828 45.38L57.4228 44.48L58.5928 45.2L58.0528 46.1L56.8828 45.38ZM55.1728 44.48L56.3428 45.2L55.8028 46.1L54.6328 45.38L55.1728 44.48ZM66.6857 57.17C66.6857 57.71 66.7457 58.178 66.8657 58.574C66.9977 58.97 67.2137 59.294 67.5137 59.546C67.8137 59.81 68.2097 60.002 68.7017 60.122C69.1937 60.254 69.8057 60.32 70.5377 60.32C70.7417 60.32 70.9397 60.32 71.1317 60.32C71.3357 60.32 71.5457 60.314 71.7617 60.302C71.9897 60.29 72.2417 60.272 72.5177 60.248C72.8057 60.224 73.1417 60.188 73.5257 60.14L73.7057 60.32L73.5257 60.95C72.8417 61.046 72.2357 61.1 71.7077 61.112C71.1917 61.124 70.7777 61.13 70.4657 61.13C69.7937 61.13 69.1877 61.07 68.6477 60.95C68.1077 60.842 67.6457 60.65 67.2617 60.374C66.8777 60.098 66.5777 59.726 66.3617 59.258C66.1577 58.802 66.0557 58.226 66.0557 57.53V57.44C66.0557 57.224 66.0797 56.99 66.1277 56.738C66.1757 56.498 66.2717 56.234 66.4157 55.946C66.5717 55.658 66.7937 55.346 67.0817 55.01C67.3817 54.662 67.7837 54.284 68.2877 53.876C67.9157 53.3 67.5617 52.778 67.2257 52.31C66.9017 51.83 66.6017 51.41 66.3257 51.05L65.6597 51.14L65.5157 50.906L65.7497 50.294C66.3617 50.21 66.8897 50.138 67.3337 50.078C67.7897 50.018 68.1857 49.97 68.5217 49.934C68.8697 49.898 69.1697 49.874 69.4217 49.862C69.6857 49.85 69.9437 49.844 70.1957 49.844C70.9637 49.844 71.5277 49.982 71.8877 50.258C72.2597 50.522 72.4457 50.906 72.4457 51.41C72.4457 51.854 72.2477 52.34 71.8517 52.868C71.4557 53.396 70.7657 54.002 69.7817 54.686C69.9977 54.878 70.2557 54.998 70.5557 55.046C70.8677 55.082 71.3177 55.1 71.9057 55.1H73.7057V56H71.8157C71.4077 56 71.0597 55.988 70.7717 55.964C70.4837 55.94 70.2257 55.886 69.9977 55.802C69.7697 55.706 69.5537 55.562 69.3497 55.37C69.1577 55.178 68.9477 54.914 68.7197 54.578C68.1797 54.986 67.7237 55.4 67.3517 55.82C66.9917 56.228 66.7697 56.618 66.6857 56.99V57.17ZM69.2957 54.146C70.1957 53.534 70.8257 53.012 71.1857 52.58C71.5457 52.148 71.7257 51.818 71.7257 51.59C71.7257 51.278 71.5817 51.05 71.2937 50.906C71.0177 50.762 70.6517 50.69 70.1957 50.69C70.0397 50.69 69.8357 50.696 69.5837 50.708C69.3437 50.72 69.0797 50.738 68.7917 50.762C68.5157 50.786 68.2337 50.816 67.9457 50.852C67.6577 50.876 67.3877 50.912 67.1357 50.96C67.2677 51.128 67.4177 51.338 67.5857 51.59C67.7657 51.842 67.9517 52.112 68.1437 52.4C68.3357 52.676 68.5277 52.97 68.7197 53.282C68.9237 53.582 69.1157 53.87 69.2957 54.146ZM73.7128 56C73.6168 56 73.5328 55.958 73.4608 55.874C73.3888 55.79 73.3528 55.682 73.3528 55.55C73.3528 55.406 73.3888 55.298 73.4608 55.226C73.5328 55.142 73.6168 55.1 73.7128 55.1H75.0628C75.5668 55.1 75.9808 55.088 76.3048 55.064C76.6408 55.028 76.9168 54.986 77.1328 54.938C77.3488 54.89 77.5228 54.836 77.6548 54.776C77.7988 54.704 77.9248 54.632 78.0328 54.56C78.4288 54.308 78.7708 54.08 79.0588 53.876C79.3588 53.66 79.6348 53.456 79.8868 53.264C80.1508 53.06 80.4148 52.868 80.6788 52.688C80.9428 52.508 81.2428 52.328 81.5788 52.148C80.4268 51.704 79.4728 51.368 78.7168 51.14C77.9728 50.9 77.4748 50.78 77.2228 50.78C76.9948 50.78 76.7428 50.84 76.4668 50.96C76.2028 51.068 76.0048 51.188 75.8728 51.32C75.8728 51.68 75.8728 51.998 75.8728 52.274C75.8728 52.55 75.8788 52.802 75.8908 53.03L75.4228 53.3L75.2788 53.12C75.2548 52.892 75.2428 52.718 75.2428 52.598C75.2428 52.478 75.2428 52.352 75.2428 52.22C75.2428 51.716 75.2548 51.368 75.2788 51.176C75.3148 50.972 75.3628 50.84 75.4228 50.78C75.4468 50.756 75.5188 50.702 75.6388 50.618C75.7588 50.522 75.9028 50.426 76.0708 50.33C76.2388 50.234 76.4308 50.15 76.6468 50.078C76.8628 50.006 77.0848 49.97 77.3128 49.97C77.5408 49.97 77.8408 50.018 78.2128 50.114C78.5848 50.21 79.0168 50.342 79.5088 50.51C80.0008 50.666 80.5408 50.852 81.1288 51.068C81.7168 51.284 82.3348 51.518 82.9828 51.77L83.0728 52.04L82.8028 52.67C82.5988 52.67 82.4128 52.676 82.2448 52.688C82.0888 52.7 81.9148 52.748 81.7228 52.832C81.5308 52.916 81.2968 53.054 81.0208 53.246C80.7568 53.426 80.4208 53.684 80.0128 54.02C79.4248 54.488 78.9448 54.86 78.5728 55.136C78.2008 55.4 77.8468 55.598 77.5108 55.73C77.1748 55.85 76.8088 55.928 76.4128 55.964C76.0168 55.988 75.5068 56 74.8828 56H73.7128ZM79.0228 58.34L78.4828 59.24L77.3128 58.52L77.8528 57.62L79.0228 58.34ZM88.8342 56C88.2582 56 87.8382 55.922 87.5742 55.766C87.5502 56.438 87.4122 57.038 87.1602 57.566C86.9082 58.106 86.6082 58.568 86.2602 58.952C85.9122 59.336 85.5522 59.63 85.1802 59.834C84.8202 60.038 84.5082 60.14 84.2442 60.14C84.1482 60.14 83.9982 60.122 83.7942 60.086C83.5902 60.062 83.3502 60.02 83.0742 59.96V59.42C83.5422 59.396 83.9922 59.282 84.4242 59.078C84.8562 58.886 85.2402 58.622 85.5762 58.286C85.9242 57.962 86.2122 57.584 86.4402 57.152C86.6802 56.732 86.8482 56.288 86.9442 55.82C86.9202 55.592 86.8722 55.334 86.8002 55.046C86.7402 54.758 86.6622 54.458 86.5662 54.146C86.4822 53.822 86.3862 53.504 86.2782 53.192C86.1702 52.88 86.0622 52.586 85.9542 52.31L86.4942 51.86L86.7642 51.95C86.8602 52.226 86.9502 52.514 87.0342 52.814C87.1302 53.114 87.2142 53.402 87.2862 53.678C87.3702 53.942 87.4422 54.182 87.5022 54.398C87.5622 54.602 87.6162 54.746 87.6642 54.83C87.7602 54.926 87.8862 54.998 88.0422 55.046C88.2102 55.082 88.4742 55.1 88.8342 55.1V56ZM95.4 56C95.064 56 94.698 55.952 94.302 55.856C93.918 55.748 93.534 55.622 93.15 55.478C92.778 55.334 92.43 55.178 92.106 55.01C91.782 54.842 91.524 54.692 91.332 54.56C91.092 54.884 90.864 55.142 90.648 55.334C90.444 55.526 90.246 55.676 90.054 55.784C89.862 55.88 89.664 55.94 89.46 55.964C89.268 55.988 89.058 56 88.83 56C88.734 56 88.65 55.958 88.578 55.874C88.506 55.79 88.47 55.682 88.47 55.55C88.47 55.406 88.506 55.298 88.578 55.226C88.65 55.142 88.734 55.1 88.83 55.1C89.142 55.1 89.412 55.076 89.64 55.028C89.868 54.968 90.09 54.848 90.306 54.668C90.522 54.476 90.756 54.206 91.008 53.858C91.272 53.498 91.596 53.012 91.98 52.4C92.16 52.112 92.346 51.854 92.538 51.626C92.742 51.398 92.97 51.206 93.222 51.05C93.486 50.882 93.792 50.75 94.14 50.654C94.488 50.546 94.908 50.468 95.4 50.42L95.76 50.6C95.988 51.5 96.15 52.292 96.246 52.976C96.342 53.66 96.39 54.158 96.39 54.47C96.39 54.674 96.36 54.872 96.3 55.064C96.24 55.244 96.162 55.406 96.066 55.55C95.97 55.682 95.862 55.79 95.742 55.874C95.622 55.958 95.508 56 95.4 56ZM91.926 53.66C91.902 53.696 91.878 53.732 91.854 53.768C91.842 53.804 91.824 53.834 91.8 53.858C92.064 54.038 92.358 54.206 92.682 54.362C93.018 54.518 93.36 54.656 93.708 54.776C94.068 54.884 94.416 54.98 94.752 55.064C95.088 55.136 95.394 55.178 95.67 55.19C95.67 55.01 95.658 54.782 95.634 54.506C95.61 54.218 95.574 53.906 95.526 53.57C95.49 53.234 95.436 52.88 95.364 52.508C95.292 52.136 95.214 51.77 95.13 51.41C94.722 51.458 94.38 51.512 94.104 51.572C93.84 51.62 93.594 51.716 93.366 51.86C93.15 52.004 92.928 52.22 92.7 52.508C92.484 52.784 92.226 53.168 91.926 53.66Z" fill="#6C6C6C"/>
<path d="M54.829 31C54.2157 31 53.6957 30.94 53.269 30.82C52.8557 30.6867 52.5157 30.4733 52.249 30.18C51.9957 29.8733 51.809 29.4733 51.689 28.98C51.569 28.4733 51.509 27.8467 51.509 27.1V22.56C51.509 22.16 51.4957 21.8 51.469 21.48C51.4424 21.1467 51.4024 20.8333 51.349 20.54C51.2957 20.2333 51.2157 19.94 51.109 19.66C51.0157 19.3667 50.9024 19.06 50.769 18.74L52.469 17.16C52.669 17.5867 52.829 17.98 52.949 18.34C53.069 18.7 53.1557 19.06 53.209 19.42C53.2757 19.78 53.3157 20.1533 53.329 20.54C53.3424 20.9133 53.349 21.3267 53.349 21.78V27.74C53.4957 27.9533 53.7157 28.0933 54.009 28.16C54.3157 28.2267 54.589 28.26 54.829 28.26V31ZM61.8221 31C61.5421 31 61.2088 30.9533 60.8221 30.86C60.4355 30.7667 60.0355 30.6467 59.6221 30.5C59.2088 30.3533 58.8155 30.1933 58.4421 30.02C58.0688 29.8333 57.7555 29.6533 57.5021 29.48C57.0621 30.04 56.6355 30.4333 56.2221 30.66C55.8221 30.8867 55.3555 31 54.8221 31C54.6088 31 54.4688 30.8667 54.4021 30.6C54.3221 30.3333 54.2821 30.0133 54.2821 29.64C54.2821 29.2533 54.3221 28.9267 54.4021 28.66C54.4688 28.3933 54.6088 28.26 54.8221 28.26C55.2888 28.26 55.6688 28.22 55.9621 28.14C56.2688 28.0467 56.5421 27.8933 56.7821 27.68C57.0221 27.4533 57.2621 27.16 57.5021 26.8C57.7421 26.4267 58.0355 25.96 58.3821 25.4C58.6221 25.0133 58.8688 24.6933 59.1221 24.44C59.3888 24.1733 59.6821 23.96 60.0021 23.8C60.3221 23.64 60.6821 23.52 61.0821 23.44C61.4821 23.36 61.9555 23.3 62.5021 23.26L62.9221 23.62C63.1888 24.58 63.3821 25.4533 63.5021 26.24C63.6355 27.0267 63.7021 27.6533 63.7021 28.12C63.7021 28.5067 63.6421 28.8733 63.5221 29.22C63.4021 29.5667 63.2488 29.8733 63.0621 30.14C62.8755 30.3933 62.6688 30.6 62.4421 30.76C62.2288 30.92 62.0221 31 61.8221 31ZM61.5021 25.7C61.1421 25.7267 60.8488 25.7667 60.6221 25.82C60.3955 25.86 60.1821 25.94 59.9821 26.06C59.7955 26.18 59.6088 26.36 59.4221 26.6C59.2488 26.8267 59.0355 27.1467 58.7821 27.56C59.2088 27.8133 59.7221 28.0267 60.3221 28.2C60.9355 28.36 61.4955 28.4533 62.0021 28.48C61.9888 28.28 61.9621 28.0667 61.9221 27.84C61.8955 27.6 61.8555 27.36 61.8021 27.12C61.7621 26.8667 61.7155 26.62 61.6621 26.38C61.6088 26.1267 61.5555 25.9 61.5021 25.7ZM69.0087 31C68.3954 31 67.8754 30.94 67.4487 30.82C67.0354 30.6867 66.6954 30.4733 66.4287 30.18C66.1754 29.8733 65.9887 29.4733 65.8687 28.98C65.7487 28.4733 65.6887 27.8467 65.6887 27.1V22.56C65.6887 22.16 65.6754 21.8 65.6487 21.48C65.622 21.1467 65.582 20.8333 65.5287 20.54C65.4754 20.2333 65.3954 19.94 65.2887 19.66C65.1954 19.3667 65.082 19.06 64.9487 18.74L66.6487 17.16C66.8487 17.5867 67.0087 17.98 67.1287 18.34C67.2487 18.7 67.3354 19.06 67.3887 19.42C67.4554 19.78 67.4954 20.1533 67.5087 20.54C67.522 20.9133 67.5287 21.3267 67.5287 21.78V27.74C67.6754 27.9533 67.8954 28.0933 68.1887 28.16C68.4954 28.2267 68.7687 28.26 69.0087 28.26V31ZM69.0018 31C68.7885 31 68.6485 30.8667 68.5818 30.6C68.5018 30.3333 68.4618 30.0133 68.4618 29.64C68.4618 29.2533 68.5018 28.9267 68.5818 28.66C68.6485 28.3933 68.7885 28.26 69.0018 28.26C69.8552 28.26 70.5685 28.24 71.1418 28.2C71.7152 28.16 72.1752 28.0733 72.5218 27.94C72.4818 27.7 72.4218 27.4267 72.3418 27.12C72.2618 26.8133 72.1685 26.5067 72.0618 26.2C71.9552 25.88 71.8418 25.5733 71.7218 25.28C71.6018 24.9733 71.4885 24.7 71.3818 24.46L73.1218 23.22L73.4818 23.36C73.7085 23.92 73.8885 24.5333 74.0218 25.2C74.1685 25.8667 74.2418 26.5133 74.2418 27.14C74.2418 27.5267 74.1952 27.9067 74.1018 28.28C74.0218 28.64 73.9085 28.9733 73.7618 29.28C73.6152 29.5867 73.4485 29.8533 73.2618 30.08C73.0885 30.3067 72.9085 30.4733 72.7218 30.58C72.4685 30.7267 72.0218 30.8333 71.3818 30.9C70.7418 30.9667 69.9485 31 69.0018 31ZM71.9618 33.94L70.8018 35.66L68.8818 34.44L69.9618 32.66L71.9618 33.94ZM88.8114 31C88.8247 31.0667 88.8314 31.14 88.8314 31.22C88.8447 31.3133 88.8514 31.4067 88.8514 31.5C88.8514 31.7267 88.838 31.9467 88.8114 32.16C88.7847 32.3867 88.7514 32.5933 88.7114 32.78C88.6714 32.98 88.6247 33.1533 88.5714 33.3C88.5314 33.4467 88.4914 33.5533 88.4514 33.62C88.3714 33.7267 88.1847 33.8933 87.8914 34.12C87.6114 34.36 87.2314 34.5933 86.7514 34.82C86.2714 35.06 85.7047 35.2667 85.0514 35.44C84.398 35.6133 83.6714 35.7 82.8714 35.7C81.9914 35.7 81.2714 35.6 80.7114 35.4C80.1647 35.2 79.7314 34.9333 79.4114 34.6C79.1047 34.28 78.8914 33.9067 78.7714 33.48C78.6647 33.0533 78.6114 32.6067 78.6114 32.14C78.6114 31.86 78.6247 31.4667 78.6514 30.96C78.6914 30.4533 78.738 29.9467 78.7914 29.44C78.8447 28.8533 78.9047 28.24 78.9714 27.6L80.5714 27.68C80.5447 28.3067 80.5114 28.9067 80.4714 29.48C80.4447 29.9733 80.4114 30.4733 80.3714 30.98C80.3447 31.4733 80.3247 31.8733 80.3114 32.18C80.578 32.4333 80.9047 32.6267 81.2914 32.76C81.678 32.8933 82.2047 32.96 82.8714 32.96C83.2447 32.96 83.6314 32.9333 84.0314 32.88C84.4447 32.84 84.8447 32.7733 85.2314 32.68C85.618 32.6 85.9847 32.5 86.3314 32.38C86.678 32.26 86.978 32.1267 87.2314 31.98C87.2447 31.8467 87.2514 31.7 87.2514 31.54C87.2514 31.38 87.2447 31.2467 87.2314 31.14C86.9247 30.9933 86.4247 30.9067 85.7314 30.88C85.0514 30.8533 84.1647 30.82 83.0714 30.78L82.9714 30.54C83.078 30.18 83.178 29.84 83.2714 29.52C83.378 29.1867 83.4714 28.96 83.5514 28.84C83.6047 28.7333 83.6714 28.6467 83.7514 28.58C83.8314 28.5 83.9447 28.44 84.0914 28.4C84.2514 28.3467 84.458 28.3133 84.7114 28.3C84.9647 28.2733 85.298 28.26 85.7114 28.26H89.4714V31H88.8114ZM89.4706 31C89.2572 31 89.1172 30.8667 89.0506 30.6C88.9706 30.3333 88.9306 30.0133 88.9306 29.64C88.9306 29.2533 88.9706 28.9267 89.0506 28.66C89.1172 28.3933 89.2572 28.26 89.4706 28.26H91.2906C92.3172 28.26 93.1439 28.2267 93.7706 28.16C94.3972 28.0933 94.9039 27.9867 95.2906 27.84C95.2906 27.4133 95.2706 26.9867 95.2306 26.56C94.8439 26.68 94.4439 26.7667 94.0306 26.82C93.6306 26.8733 93.1239 26.9 92.5106 26.9C91.7906 26.9 91.2439 26.7467 90.8706 26.44C90.5106 26.12 90.3306 25.6933 90.3306 25.16C90.3306 24.9067 90.3706 24.58 90.4506 24.18C90.5306 23.78 90.6306 23.36 90.7506 22.92C90.8706 22.48 90.9972 22.0467 91.1306 21.62C91.2772 21.18 91.4106 20.7933 91.5306 20.46C91.6106 20.42 91.6839 20.3733 91.7506 20.32C91.8039 20.28 91.8506 20.2467 91.8906 20.22C91.9439 20.18 91.9706 20.1533 91.9706 20.14C92.9706 20.14 93.7839 20.34 94.4106 20.74C95.0372 21.1267 95.5239 21.6333 95.8706 22.26C96.2306 22.8733 96.4772 23.5667 96.6106 24.34C96.7439 25.1133 96.8106 25.8933 96.8106 26.68C96.8106 27.1733 96.7639 27.6267 96.6706 28.04C96.5772 28.4533 96.4506 28.82 96.2906 29.14C96.1439 29.46 95.9706 29.7333 95.7706 29.96C95.5839 30.1733 95.3972 30.3333 95.2106 30.44C94.9039 30.6133 94.4106 30.7533 93.7306 30.86C93.0506 30.9533 92.1439 31 91.0106 31H89.4706ZM93.1706 24.72C93.4906 24.72 93.7972 24.7067 94.0906 24.68C94.3839 24.64 94.6506 24.5933 94.8906 24.54C94.6906 23.9 94.3772 23.3933 93.9506 23.02C93.5372 22.6333 92.9572 22.4267 92.2106 22.4C92.1706 22.52 92.1172 22.6733 92.0506 22.86C91.9972 23.0333 91.9439 23.22 91.8906 23.42C91.8372 23.62 91.7839 23.8133 91.7306 24C91.6906 24.1733 91.6572 24.32 91.6306 24.44C91.8039 24.5467 92.0039 24.62 92.2306 24.66C92.4706 24.7 92.7839 24.72 93.1706 24.72ZM91.4106 17.76L92.4906 15.98L94.4906 17.24L93.3306 18.96L91.4106 17.76Z" fill="#0B0C17"/>
</svg>
