<svg width="218" height="80" viewBox="0 0 218 80" fill="none" xmlns="http://www.w3.org/2000/svg">
<path d="M160.909 68.0735C158.752 67.06 156.341 65.2647 154.161 64.156C150.596 62.3432 151.26 57.1572 151.282 53.7896L151.304 45.7126L151.289 34.4549C151.285 30.884 150.509 25.0985 154.072 22.9972C162.808 17.8471 171.548 12.6339 180.444 7.76443C183.8 5.92748 186.351 8.01483 189.148 9.64198L195.399 13.2448L202.397 17.1772C203.56 17.8296 205.3 18.7393 206.331 19.4726L206.368 19.559C202.77 27.4701 199.395 35.453 195.87 43.395C195.017 45.3163 194.185 47.5675 193.185 49.3725C192.29 49.8278 191.985 50.0323 191.175 50.6232C186.823 46.8386 181.72 43.4273 176.963 40.106C176.667 38.9465 176.35 38.011 175.14 37.5183C174.503 37.2607 173.788 37.2809 173.167 37.5744C172.535 37.8679 172.058 38.4155 171.856 39.0803C171.537 40.1066 171.914 40.7197 172.388 41.622C170.403 45.7072 168.527 50.4745 166.685 54.6737C164.776 59.0248 162.651 63.6864 160.909 68.0735Z" fill="#55AA35"/>
<path d="M208.293 20.5274C210.314 21.9737 214.018 23.3463 214.675 25.8684C215.292 28.2412 215.115 31.6126 215.115 34.0828L215.117 53.553C215.112 64.2156 214.923 62.5522 205.832 67.8679C201.395 70.5087 196.922 73.0904 192.416 75.6122C190.528 76.6928 186.138 79.4671 184.341 79.8651C183.334 80.0918 182.282 80.0319 181.308 79.6918C179.723 79.1439 177.603 77.76 176.098 76.8946C172.512 74.8782 168.969 72.7847 165.474 70.6155L162.701 69.1114L170.332 51.7275C171.473 49.1318 173.445 45.0398 174.334 42.515C174.743 42.3432 175.548 41.8852 175.959 41.8654C176.366 41.8458 189.18 51.2429 190.669 52.2878C190.721 52.5193 190.78 52.7487 190.847 52.9761C191.063 53.6982 191.45 54.0884 192.129 54.433C192.799 54.7761 193.583 54.823 194.29 54.5624C194.932 54.3386 195.442 53.8451 195.685 53.2126C196.107 52.1416 195.735 51.3291 195.297 50.3705C195.291 50.3574 195.285 50.3443 195.279 50.3311C199.214 40.6862 204.055 30.0934 208.293 20.5274Z" fill="#001B27"/>
<path d="M206.331 19.4726L206.368 19.559C202.77 27.4701 199.395 35.453 195.87 43.395C195.017 45.3163 194.185 47.5675 193.185 49.3725C192.29 49.8278 191.985 50.0323 191.175 50.6232C186.823 46.8386 181.72 43.4273 176.963 40.106C176.667 38.9465 176.35 38.011 175.14 37.5183C174.503 37.2607 173.788 37.2809 173.167 37.5744C172.535 37.8679 172.058 38.4155 171.856 39.0803C171.537 40.1066 171.914 40.7197 172.388 41.622C170.403 45.7072 168.527 50.4745 166.685 54.6737C164.776 59.0248 162.651 63.6864 160.909 68.0735L162.701 69.1114L170.332 51.7275C171.473 49.1318 173.445 45.0398 174.334 42.515C174.743 42.3432 175.548 41.8852 175.959 41.8654C176.366 41.8458 189.18 51.2429 190.669 52.2878C190.721 52.5193 190.78 52.7487 190.847 52.9761C191.063 53.6982 191.45 54.0884 192.129 54.433C192.799 54.7761 193.583 54.823 194.29 54.5624C194.932 54.3386 195.442 53.8451 195.685 53.2126C196.107 52.1416 195.735 51.3291 195.297 50.3705L195.279 50.3311C199.214 40.6862 204.055 30.0934 208.293 20.5274C209.357 18.3864 210.335 16.1423 211.13 13.894C212.531 14.3261 214.785 15.3367 216.276 15.8942C216.351 10.9515 216.952 4.99794 217.215 0C215.606 1.22391 213.698 2.90172 212.098 4.2185C209.329 6.51413 206.514 8.75352 203.654 10.9353C205.371 11.6785 207.487 12.4228 209.262 13.0932C208.212 15.1856 207.234 17.3133 206.331 19.4726Z" fill="#05668D"/>
<path d="M-4.39882e-05 62.42C0.467956 62.396 0.917956 62.282 1.34996 62.078C1.78196 61.886 2.16596 61.622 2.50196 61.286C2.84996 60.962 3.13796 60.584 3.36596 60.152C3.60596 59.732 3.77396 59.288 3.86996 58.82C3.84596 58.592 3.79796 58.334 3.72596 58.046C3.66596 57.758 3.58796 57.458 3.49196 57.146C3.40796 56.822 3.31196 56.504 3.20396 56.192C3.09596 55.88 2.98796 55.586 2.87996 55.31L3.41996 54.86L3.68996 54.95C3.79796 55.202 3.89996 55.484 3.99596 55.796C4.10396 56.108 4.19396 56.426 4.26596 56.75C4.33796 57.074 4.39196 57.392 4.42796 57.704C4.47596 58.016 4.49996 58.298 4.49996 58.55C4.49996 59.246 4.37396 59.876 4.12196 60.44C3.88196 61.004 3.58796 61.484 3.23996 61.88C2.89196 62.288 2.52596 62.6 2.14196 62.816C1.75796 63.032 1.43396 63.14 1.16996 63.14C1.07396 63.14 0.923956 63.122 0.719956 63.086C0.515956 63.062 0.275956 63.02 -4.39882e-05 62.96V62.42ZM7.16185 51.71C7.14985 51.278 7.13785 50.9 7.12585 50.576C7.11385 50.252 7.08985 49.952 7.05385 49.676C7.02985 49.388 6.98185 49.112 6.90985 48.848C6.84985 48.584 6.76585 48.308 6.65785 48.02L7.37785 47.48C7.64185 48.116 7.79785 48.758 7.84585 49.406C7.89385 50.042 7.91785 50.72 7.91785 51.44V58.874L7.46785 59L7.28785 58.91L7.16185 51.71ZM14.0393 59C13.4633 59 13.0433 58.922 12.7793 58.766C12.7553 59.438 12.6173 60.038 12.3653 60.566C12.1133 61.106 11.8133 61.568 11.4653 61.952C11.1173 62.336 10.7573 62.63 10.3853 62.834C10.0253 63.038 9.71325 63.14 9.44925 63.14C9.35325 63.14 9.20325 63.122 8.99925 63.086C8.79525 63.062 8.55525 63.02 8.27925 62.96V62.42C8.74725 62.396 9.19725 62.282 9.62925 62.078C10.0613 61.886 10.4453 61.622 10.7813 61.286C11.1293 60.962 11.4173 60.584 11.6453 60.152C11.8853 59.732 12.0533 59.288 12.1493 58.82C12.1253 58.592 12.0773 58.334 12.0053 58.046C11.9453 57.758 11.8673 57.458 11.7713 57.146C11.6873 56.822 11.5913 56.504 11.4833 56.192C11.3753 55.88 11.2673 55.586 11.1593 55.31L11.6993 54.86L11.9693 54.95C12.0653 55.226 12.1553 55.514 12.2393 55.814C12.3353 56.114 12.4193 56.402 12.4913 56.678C12.5753 56.942 12.6473 57.182 12.7073 57.398C12.7673 57.602 12.8213 57.746 12.8693 57.83C12.9653 57.926 13.0913 57.998 13.2473 58.046C13.4153 58.082 13.6793 58.1 14.0393 58.1V59ZM10.6193 52.7L11.1593 51.8L12.3293 52.52L11.7893 53.42L10.6193 52.7ZM14.035 59C13.939 59 13.855 58.958 13.783 58.874C13.711 58.79 13.675 58.682 13.675 58.55C13.675 58.406 13.711 58.298 13.783 58.226C13.855 58.142 13.939 58.1 14.035 58.1C14.323 58.1 14.617 58.094 14.917 58.082C15.229 58.07 15.523 58.046 15.799 58.01C16.087 57.974 16.345 57.932 16.573 57.884C16.813 57.824 17.005 57.746 17.149 57.65C17.149 57.494 17.131 57.272 17.095 56.984C17.059 56.696 17.005 56.384 16.933 56.048C16.861 55.712 16.777 55.37 16.681 55.022C16.585 54.662 16.483 54.338 16.375 54.05L16.915 53.6L17.185 53.69C17.257 53.846 17.329 54.056 17.401 54.32C17.473 54.584 17.539 54.866 17.599 55.166C17.659 55.466 17.707 55.766 17.743 56.066C17.791 56.354 17.815 56.612 17.815 56.84C17.815 57.296 17.719 57.674 17.527 57.974C17.347 58.274 17.143 58.484 16.915 58.604C16.675 58.736 16.291 58.838 15.763 58.91C15.247 58.97 14.671 59 14.035 59ZM15.907 61.34L15.367 62.24L14.197 61.52L14.737 60.62L15.907 61.34ZM20.574 51.71C20.562 51.278 20.55 50.9 20.538 50.576C20.526 50.252 20.502 49.952 20.466 49.676C20.442 49.388 20.394 49.112 20.322 48.848C20.262 48.584 20.178 48.308 20.07 48.02L20.79 47.48C21.054 48.116 21.21 48.758 21.258 49.406C21.306 50.042 21.33 50.72 21.33 51.44V58.874L20.88 59L20.7 58.91L20.574 51.71ZM38.79 59C38.622 59 38.448 58.988 38.268 58.964C38.088 58.94 37.914 58.892 37.746 58.82C37.578 58.736 37.416 58.622 37.26 58.478C37.116 58.334 36.996 58.142 36.9 57.902C36.816 58.034 36.738 58.136 36.666 58.208C36.594 58.28 36.522 58.334 36.45 58.37C36.102 58.55 35.526 58.718 34.722 58.874C33.918 59.018 32.904 59.09 31.68 59.09C31.068 59.09 30.486 59.066 29.934 59.018C29.382 58.97 28.896 58.874 28.476 58.73C28.056 58.586 27.72 58.382 27.468 58.118C27.216 57.842 27.09 57.476 27.09 57.02C27.09 56.744 27.102 56.456 27.126 56.156C27.15 55.844 27.174 55.55 27.198 55.274C27.234 54.962 27.27 54.644 27.306 54.32L27.99 54.374C27.942 54.938 27.9 55.442 27.864 55.886C27.828 56.318 27.798 56.786 27.774 57.29C27.918 57.446 28.122 57.584 28.386 57.704C28.65 57.812 28.956 57.902 29.304 57.974C29.652 58.046 30.024 58.1 30.42 58.136C30.828 58.172 31.248 58.19 31.68 58.19C32.136 58.19 32.592 58.178 33.048 58.154C33.504 58.118 33.936 58.076 34.344 58.028C34.764 57.968 35.148 57.902 35.496 57.83C35.856 57.758 36.156 57.674 36.396 57.578L36.81 55.04H37.44C37.416 55.376 37.398 55.652 37.386 55.868C37.374 56.084 37.362 56.258 37.35 56.39C37.35 56.51 37.35 56.606 37.35 56.678C37.35 56.738 37.35 56.792 37.35 56.84C37.35 57.092 37.392 57.302 37.476 57.47C37.56 57.626 37.668 57.752 37.8 57.848C37.944 57.944 38.1 58.01 38.268 58.046C38.448 58.082 38.622 58.1 38.79 58.1V59ZM30.87 51.26L32.04 51.98L31.5 52.88L30.33 52.16L30.87 51.26ZM32.58 52.16L33.12 51.26L34.29 51.98L33.75 52.88L32.58 52.16ZM48.235 59C47.803 59 47.401 58.958 47.029 58.874C46.669 58.778 46.375 58.592 46.147 58.316C46.051 58.52 45.925 58.688 45.769 58.82C45.625 58.94 45.487 59 45.355 59C45.019 59 44.653 58.952 44.257 58.856C43.873 58.748 43.489 58.622 43.105 58.478C42.733 58.334 42.385 58.178 42.061 58.01C41.737 57.842 41.479 57.692 41.287 57.56C41.047 57.884 40.819 58.142 40.603 58.334C40.399 58.526 40.201 58.676 40.009 58.784C39.817 58.88 39.619 58.94 39.415 58.964C39.223 58.988 39.013 59 38.785 59C38.689 59 38.605 58.958 38.533 58.874C38.461 58.79 38.425 58.682 38.425 58.55C38.425 58.406 38.461 58.298 38.533 58.226C38.605 58.142 38.689 58.1 38.785 58.1C39.097 58.1 39.367 58.076 39.595 58.028C39.823 57.968 40.045 57.848 40.261 57.668C40.477 57.476 40.711 57.206 40.963 56.858C41.227 56.498 41.551 56.012 41.935 55.4C42.115 55.112 42.301 54.854 42.493 54.626C42.697 54.398 42.925 54.206 43.177 54.05C43.441 53.882 43.747 53.75 44.095 53.654C44.443 53.546 44.863 53.468 45.355 53.42L45.715 53.6C45.895 54.284 46.033 54.992 46.129 55.724C46.237 56.444 46.339 57.056 46.435 57.56C46.615 57.788 46.867 57.938 47.191 58.01C47.527 58.07 47.875 58.1 48.235 58.1V59ZM41.881 56.66C41.857 56.696 41.833 56.732 41.809 56.768C41.797 56.804 41.779 56.834 41.755 56.858C42.019 57.038 42.313 57.206 42.637 57.362C42.973 57.518 43.315 57.656 43.663 57.776C44.023 57.884 44.371 57.98 44.707 58.064C45.043 58.136 45.349 58.178 45.625 58.19C45.625 58.01 45.613 57.782 45.589 57.506C45.565 57.218 45.529 56.906 45.481 56.57C45.445 56.234 45.391 55.88 45.319 55.508C45.247 55.136 45.169 54.77 45.085 54.41C44.677 54.458 44.335 54.512 44.059 54.572C43.795 54.62 43.549 54.716 43.321 54.86C43.105 55.004 42.883 55.22 42.655 55.508C42.439 55.784 42.181 56.168 41.881 56.66ZM53.2821 59C53.1141 59 52.9401 58.988 52.7601 58.964C52.5921 58.94 52.4241 58.892 52.2561 58.82C52.0881 58.748 51.9321 58.646 51.7881 58.514C51.6441 58.37 51.5241 58.184 51.4281 57.956C51.3681 58.064 51.2961 58.178 51.2121 58.298C51.1281 58.406 51.0381 58.49 50.9421 58.55C50.7621 58.682 50.4441 58.79 49.9881 58.874C49.5441 58.958 48.9621 59 48.2421 59C48.1461 59 48.0621 58.958 47.9901 58.874C47.9181 58.79 47.8821 58.682 47.8821 58.55C47.8821 58.406 47.9181 58.298 47.9901 58.226C48.0621 58.142 48.1461 58.1 48.2421 58.1C48.9621 58.1 49.5321 58.076 49.9521 58.028C50.3721 57.968 50.6721 57.902 50.8521 57.83L51.3021 55.04H51.9321C51.9081 55.376 51.8901 55.652 51.8781 55.868C51.8661 56.084 51.8541 56.258 51.8421 56.39C51.8421 56.51 51.8421 56.606 51.8421 56.678C51.8421 56.738 51.8421 56.792 51.8421 56.84C51.8421 57.092 51.8841 57.302 51.9681 57.47C52.0521 57.626 52.1601 57.752 52.2921 57.848C52.4361 57.944 52.5921 58.01 52.7601 58.046C52.9401 58.082 53.1141 58.1 53.2821 58.1V59ZM52.6521 61.34L52.1121 62.24L50.9421 61.52L51.4821 60.62L52.6521 61.34ZM49.2321 60.62L50.4021 61.34L49.8621 62.24L48.6921 61.52L49.2321 60.62ZM53.287 59C53.191 59 53.107 58.958 53.035 58.874C52.963 58.79 52.927 58.682 52.927 58.55C52.927 58.406 52.963 58.298 53.035 58.226C53.107 58.142 53.191 58.1 53.287 58.1H54.187C54.751 58.1 55.291 58.082 55.807 58.046C56.335 58.01 56.815 57.962 57.247 57.902C57.679 57.83 58.051 57.746 58.363 57.65C58.675 57.554 58.903 57.446 59.047 57.326C59.059 57.062 59.065 56.798 59.065 56.534C59.065 56.27 59.053 56 59.029 55.724C58.645 55.856 58.249 55.958 57.841 56.03C57.445 56.09 56.977 56.12 56.437 56.12C55.753 56.12 55.249 56 54.925 55.76C54.613 55.508 54.457 55.178 54.457 54.77C54.457 54.59 54.493 54.344 54.565 54.032C54.637 53.72 54.721 53.39 54.817 53.042C54.913 52.682 55.015 52.328 55.123 51.98C55.243 51.632 55.351 51.332 55.447 51.08C55.507 51.044 55.561 51.002 55.609 50.954C55.657 50.918 55.699 50.888 55.735 50.864C55.771 50.84 55.795 50.822 55.807 50.81C56.635 50.834 57.307 51.014 57.823 51.35C58.339 51.674 58.741 52.094 59.029 52.61C59.317 53.126 59.509 53.708 59.605 54.356C59.713 55.004 59.767 55.652 59.767 56.3C59.767 56.612 59.731 56.888 59.659 57.128C59.599 57.356 59.515 57.554 59.407 57.722C59.299 57.89 59.179 58.028 59.047 58.136C58.927 58.232 58.807 58.31 58.687 58.37C58.351 58.538 57.811 58.688 57.067 58.82C56.323 58.94 55.363 59 54.187 59H53.287ZM56.617 55.22C57.097 55.22 57.541 55.19 57.949 55.13C58.357 55.058 58.687 54.986 58.939 54.914C58.867 54.482 58.765 54.08 58.633 53.708C58.501 53.324 58.315 52.988 58.075 52.7C57.835 52.412 57.535 52.184 57.175 52.016C56.827 51.836 56.401 51.734 55.897 51.71C55.849 51.818 55.783 52.016 55.699 52.304C55.627 52.58 55.549 52.88 55.465 53.204C55.381 53.528 55.303 53.84 55.231 54.14C55.159 54.428 55.111 54.638 55.087 54.77C55.219 54.95 55.417 55.07 55.681 55.13C55.945 55.19 56.257 55.22 56.617 55.22ZM56.707 48.38L57.247 47.48L58.417 48.2L57.877 49.1L56.707 48.38ZM54.997 47.48L56.167 48.2L55.627 49.1L54.457 48.38L54.997 47.48ZM66.51 60.17C66.51 60.71 66.57 61.178 66.69 61.574C66.822 61.97 67.038 62.294 67.338 62.546C67.638 62.81 68.034 63.002 68.526 63.122C69.018 63.254 69.63 63.32 70.362 63.32C70.566 63.32 70.764 63.32 70.956 63.32C71.16 63.32 71.37 63.314 71.586 63.302C71.814 63.29 72.066 63.272 72.342 63.248C72.63 63.224 72.966 63.188 73.35 63.14L73.53 63.32L73.35 63.95C72.666 64.046 72.06 64.1 71.532 64.112C71.016 64.124 70.602 64.13 70.29 64.13C69.618 64.13 69.012 64.07 68.472 63.95C67.932 63.842 67.47 63.65 67.086 63.374C66.702 63.098 66.402 62.726 66.186 62.258C65.982 61.802 65.88 61.226 65.88 60.53V60.44C65.88 60.224 65.904 59.99 65.952 59.738C66 59.498 66.096 59.234 66.24 58.946C66.396 58.658 66.618 58.346 66.906 58.01C67.206 57.662 67.608 57.284 68.112 56.876C67.74 56.3 67.386 55.778 67.05 55.31C66.726 54.83 66.426 54.41 66.15 54.05L65.484 54.14L65.34 53.906L65.574 53.294C66.186 53.21 66.714 53.138 67.158 53.078C67.614 53.018 68.01 52.97 68.346 52.934C68.694 52.898 68.994 52.874 69.246 52.862C69.51 52.85 69.768 52.844 70.02 52.844C70.788 52.844 71.352 52.982 71.712 53.258C72.084 53.522 72.27 53.906 72.27 54.41C72.27 54.854 72.072 55.34 71.676 55.868C71.28 56.396 70.59 57.002 69.606 57.686C69.822 57.878 70.08 57.998 70.38 58.046C70.692 58.082 71.142 58.1 71.73 58.1H73.53V59H71.64C71.232 59 70.884 58.988 70.596 58.964C70.308 58.94 70.05 58.886 69.822 58.802C69.594 58.706 69.378 58.562 69.174 58.37C68.982 58.178 68.772 57.914 68.544 57.578C68.004 57.986 67.548 58.4 67.176 58.82C66.816 59.228 66.594 59.618 66.51 59.99V60.17ZM69.12 57.146C70.02 56.534 70.65 56.012 71.01 55.58C71.37 55.148 71.55 54.818 71.55 54.59C71.55 54.278 71.406 54.05 71.118 53.906C70.842 53.762 70.476 53.69 70.02 53.69C69.864 53.69 69.66 53.696 69.408 53.708C69.168 53.72 68.904 53.738 68.616 53.762C68.34 53.786 68.058 53.816 67.77 53.852C67.482 53.876 67.212 53.912 66.96 53.96C67.092 54.128 67.242 54.338 67.41 54.59C67.59 54.842 67.776 55.112 67.968 55.4C68.16 55.676 68.352 55.97 68.544 56.282C68.748 56.582 68.94 56.87 69.12 57.146ZM80.107 59C79.771 59 79.405 58.952 79.009 58.856C78.625 58.748 78.241 58.622 77.857 58.478C77.485 58.334 77.137 58.178 76.813 58.01C76.489 57.842 76.231 57.692 76.039 57.56C75.799 57.884 75.571 58.142 75.355 58.334C75.151 58.526 74.953 58.676 74.761 58.784C74.569 58.88 74.371 58.94 74.167 58.964C73.975 58.988 73.765 59 73.537 59C73.441 59 73.357 58.958 73.285 58.874C73.213 58.79 73.177 58.682 73.177 58.55C73.177 58.406 73.213 58.298 73.285 58.226C73.357 58.142 73.441 58.1 73.537 58.1C73.849 58.1 74.119 58.076 74.347 58.028C74.575 57.968 74.797 57.848 75.013 57.668C75.229 57.476 75.463 57.206 75.715 56.858C75.979 56.498 76.303 56.012 76.687 55.4C76.867 55.112 77.053 54.854 77.245 54.626C77.449 54.398 77.677 54.206 77.929 54.05C78.193 53.882 78.499 53.75 78.847 53.654C79.195 53.546 79.615 53.468 80.107 53.42L80.467 53.6C80.695 54.5 80.857 55.292 80.953 55.976C81.049 56.66 81.097 57.158 81.097 57.47C81.097 57.674 81.067 57.872 81.007 58.064C80.947 58.244 80.869 58.406 80.773 58.55C80.677 58.682 80.569 58.79 80.449 58.874C80.329 58.958 80.215 59 80.107 59ZM76.633 56.66C76.609 56.696 76.585 56.732 76.561 56.768C76.549 56.804 76.531 56.834 76.507 56.858C76.771 57.038 77.065 57.206 77.389 57.362C77.725 57.518 78.067 57.656 78.415 57.776C78.775 57.884 79.123 57.98 79.459 58.064C79.795 58.136 80.101 58.178 80.377 58.19C80.377 58.01 80.365 57.782 80.341 57.506C80.317 57.218 80.281 56.906 80.233 56.57C80.197 56.234 80.143 55.88 80.071 55.508C79.999 55.136 79.921 54.77 79.837 54.41C79.429 54.458 79.087 54.512 78.811 54.572C78.547 54.62 78.301 54.716 78.073 54.86C77.857 55.004 77.635 55.22 77.407 55.508C77.191 55.784 76.933 56.168 76.633 56.66ZM86.3212 59C85.8532 59 85.4632 58.946 85.1512 58.838C84.8392 58.73 84.5872 58.58 84.3952 58.388C84.2152 58.184 84.0832 57.944 83.9992 57.668C83.9272 57.392 83.8912 57.086 83.8912 56.75V51.71C83.8912 51.278 83.8852 50.9 83.8732 50.576C83.8612 50.252 83.8312 49.952 83.7832 49.676C83.7472 49.388 83.6932 49.112 83.6212 48.848C83.5492 48.584 83.4592 48.308 83.3512 48.02L84.0712 47.48C84.3352 48.116 84.4912 48.758 84.5392 49.406C84.5872 50.042 84.6112 50.72 84.6112 51.44V57.38C84.7432 57.62 84.9592 57.8 85.2592 57.92C85.5592 58.04 85.9132 58.1 86.3212 58.1V59ZM86.3163 59C86.2203 59 86.1363 58.958 86.0643 58.874C85.9923 58.79 85.9563 58.682 85.9563 58.55C85.9563 58.406 85.9923 58.298 86.0643 58.226C86.1363 58.142 86.2203 58.1 86.3163 58.1H87.6663C88.1703 58.1 88.5843 58.088 88.9083 58.064C89.2443 58.028 89.5203 57.986 89.7363 57.938C89.9523 57.89 90.1263 57.836 90.2583 57.776C90.4023 57.704 90.5283 57.632 90.6363 57.56C91.0323 57.308 91.3743 57.08 91.6623 56.876C91.9623 56.66 92.2383 56.456 92.4903 56.264C92.7543 56.06 93.0183 55.868 93.2823 55.688C93.5463 55.508 93.8463 55.328 94.1823 55.148C93.0303 54.704 92.0763 54.368 91.3203 54.14C90.5763 53.9 90.0783 53.78 89.8263 53.78C89.5983 53.78 89.3463 53.84 89.0703 53.96C88.8063 54.068 88.6083 54.188 88.4763 54.32C88.4763 54.68 88.4763 54.998 88.4763 55.274C88.4763 55.55 88.4823 55.802 88.4943 56.03L88.0263 56.3L87.8823 56.12C87.8583 55.892 87.8463 55.718 87.8463 55.598C87.8463 55.478 87.8463 55.352 87.8463 55.22C87.8463 54.716 87.8583 54.368 87.8823 54.176C87.9183 53.972 87.9663 53.84 88.0263 53.78C88.0503 53.756 88.1223 53.702 88.2423 53.618C88.3623 53.522 88.5063 53.426 88.6743 53.33C88.8423 53.234 89.0343 53.15 89.2503 53.078C89.4663 53.006 89.6883 52.97 89.9163 52.97C90.1443 52.97 90.4443 53.018 90.8163 53.114C91.1883 53.21 91.6203 53.342 92.1123 53.51C92.6043 53.666 93.1443 53.852 93.7323 54.068C94.3203 54.284 94.9383 54.518 95.5863 54.77L95.6763 55.04L95.4063 55.67C95.2023 55.67 95.0163 55.676 94.8483 55.688C94.6923 55.7 94.5183 55.748 94.3263 55.832C94.1343 55.916 93.9003 56.054 93.6243 56.246C93.3603 56.426 93.0243 56.684 92.6163 57.02C92.0283 57.488 91.5483 57.86 91.1763 58.136C90.8043 58.4 90.4503 58.598 90.1143 58.73C89.7783 58.85 89.4123 58.928 89.0163 58.964C88.6203 58.988 88.1103 59 87.4863 59H86.3163ZM91.6263 61.34L91.0863 62.24L89.9163 61.52L90.4563 60.62L91.6263 61.34ZM102.246 60.17C102.246 60.71 102.306 61.178 102.426 61.574C102.558 61.97 102.774 62.294 103.074 62.546C103.374 62.81 103.77 63.002 104.262 63.122C104.754 63.254 105.366 63.32 106.098 63.32C106.302 63.32 106.5 63.32 106.692 63.32C106.896 63.32 107.106 63.314 107.322 63.302C107.55 63.29 107.802 63.272 108.078 63.248C108.366 63.224 108.702 63.188 109.086 63.14L109.266 63.32L109.086 63.95C108.402 64.046 107.796 64.1 107.268 64.112C106.752 64.124 106.338 64.13 106.026 64.13C105.354 64.13 104.748 64.07 104.208 63.95C103.668 63.842 103.206 63.65 102.822 63.374C102.438 63.098 102.138 62.726 101.922 62.258C101.718 61.802 101.616 61.226 101.616 60.53V60.44C101.616 60.224 101.64 59.99 101.688 59.738C101.736 59.498 101.832 59.234 101.976 58.946C102.132 58.658 102.354 58.346 102.642 58.01C102.942 57.662 103.344 57.284 103.848 56.876C103.476 56.3 103.122 55.778 102.786 55.31C102.462 54.83 102.162 54.41 101.886 54.05L101.22 54.14L101.076 53.906L101.31 53.294C101.922 53.21 102.45 53.138 102.894 53.078C103.35 53.018 103.746 52.97 104.082 52.934C104.43 52.898 104.73 52.874 104.982 52.862C105.246 52.85 105.504 52.844 105.756 52.844C106.524 52.844 107.088 52.982 107.448 53.258C107.82 53.522 108.006 53.906 108.006 54.41C108.006 54.854 107.808 55.34 107.412 55.868C107.016 56.396 106.326 57.002 105.342 57.686C105.558 57.878 105.816 57.998 106.116 58.046C106.428 58.082 106.878 58.1 107.466 58.1H109.266V59H107.376C106.968 59 106.62 58.988 106.332 58.964C106.044 58.94 105.786 58.886 105.558 58.802C105.33 58.706 105.114 58.562 104.91 58.37C104.718 58.178 104.508 57.914 104.28 57.578C103.74 57.986 103.284 58.4 102.912 58.82C102.552 59.228 102.33 59.618 102.246 59.99V60.17ZM104.856 57.146C105.756 56.534 106.386 56.012 106.746 55.58C107.106 55.148 107.286 54.818 107.286 54.59C107.286 54.278 107.142 54.05 106.854 53.906C106.578 53.762 106.212 53.69 105.756 53.69C105.6 53.69 105.396 53.696 105.144 53.708C104.904 53.72 104.64 53.738 104.352 53.762C104.076 53.786 103.794 53.816 103.506 53.852C103.218 53.876 102.948 53.912 102.696 53.96C102.828 54.128 102.978 54.338 103.146 54.59C103.326 54.842 103.512 55.112 103.704 55.4C103.896 55.676 104.088 55.97 104.28 56.282C104.484 56.582 104.676 56.87 104.856 57.146ZM109.273 59C109.177 59 109.093 58.958 109.021 58.874C108.949 58.79 108.913 58.682 108.913 58.55C108.913 58.406 108.949 58.298 109.021 58.226C109.093 58.142 109.177 58.1 109.273 58.1H110.623C111.127 58.1 111.541 58.088 111.865 58.064C112.201 58.028 112.477 57.986 112.693 57.938C112.909 57.89 113.083 57.836 113.215 57.776C113.359 57.704 113.485 57.632 113.593 57.56C113.989 57.308 114.331 57.08 114.619 56.876C114.919 56.66 115.195 56.456 115.447 56.264C115.711 56.06 115.975 55.868 116.239 55.688C116.503 55.508 116.803 55.328 117.139 55.148C115.987 54.704 115.033 54.368 114.277 54.14C113.533 53.9 113.035 53.78 112.783 53.78C112.555 53.78 112.303 53.84 112.027 53.96C111.763 54.068 111.565 54.188 111.433 54.32C111.433 54.68 111.433 54.998 111.433 55.274C111.433 55.55 111.439 55.802 111.451 56.03L110.983 56.3L110.839 56.12C110.815 55.892 110.803 55.718 110.803 55.598C110.803 55.478 110.803 55.352 110.803 55.22C110.803 54.716 110.815 54.368 110.839 54.176C110.875 53.972 110.923 53.84 110.983 53.78C111.007 53.756 111.079 53.702 111.199 53.618C111.319 53.522 111.463 53.426 111.631 53.33C111.799 53.234 111.991 53.15 112.207 53.078C112.423 53.006 112.645 52.97 112.873 52.97C113.101 52.97 113.401 53.018 113.773 53.114C114.145 53.21 114.577 53.342 115.069 53.51C115.561 53.666 116.101 53.852 116.689 54.068C117.277 54.284 117.895 54.518 118.543 54.77L118.633 55.04L118.363 55.67C118.159 55.67 117.973 55.676 117.805 55.688C117.649 55.7 117.475 55.748 117.283 55.832C117.091 55.916 116.857 56.054 116.581 56.246C116.317 56.426 115.981 56.684 115.573 57.02C114.985 57.488 114.505 57.86 114.133 58.136C113.761 58.4 113.407 58.598 113.071 58.73C112.735 58.85 112.369 58.928 111.973 58.964C111.577 58.988 111.067 59 110.443 59H109.273ZM114.583 61.34L114.043 62.24L112.873 61.52L113.413 60.62L114.583 61.34ZM124.395 59C123.819 59 123.399 58.922 123.135 58.766C123.111 59.438 122.973 60.038 122.721 60.566C122.469 61.106 122.169 61.568 121.821 61.952C121.473 62.336 121.113 62.63 120.741 62.834C120.381 63.038 120.069 63.14 119.805 63.14C119.709 63.14 119.559 63.122 119.355 63.086C119.151 63.062 118.911 63.02 118.635 62.96V62.42C119.103 62.396 119.553 62.282 119.985 62.078C120.417 61.886 120.801 61.622 121.137 61.286C121.485 60.962 121.773 60.584 122.001 60.152C122.241 59.732 122.409 59.288 122.505 58.82C122.481 58.592 122.433 58.334 122.361 58.046C122.301 57.758 122.223 57.458 122.127 57.146C122.043 56.822 121.947 56.504 121.839 56.192C121.731 55.88 121.623 55.586 121.515 55.31L122.055 54.86L122.325 54.95C122.421 55.226 122.511 55.514 122.595 55.814C122.691 56.114 122.775 56.402 122.847 56.678C122.931 56.942 123.003 57.182 123.063 57.398C123.123 57.602 123.177 57.746 123.225 57.83C123.321 57.926 123.447 57.998 123.603 58.046C123.771 58.082 124.035 58.1 124.395 58.1V59ZM130.961 59C130.625 59 130.259 58.952 129.863 58.856C129.479 58.748 129.095 58.622 128.711 58.478C128.339 58.334 127.991 58.178 127.667 58.01C127.343 57.842 127.085 57.692 126.893 57.56C126.653 57.884 126.425 58.142 126.209 58.334C126.005 58.526 125.807 58.676 125.615 58.784C125.423 58.88 125.225 58.94 125.021 58.964C124.829 58.988 124.619 59 124.391 59C124.295 59 124.211 58.958 124.139 58.874C124.067 58.79 124.031 58.682 124.031 58.55C124.031 58.406 124.067 58.298 124.139 58.226C124.211 58.142 124.295 58.1 124.391 58.1C124.703 58.1 124.973 58.076 125.201 58.028C125.429 57.968 125.651 57.848 125.867 57.668C126.083 57.476 126.317 57.206 126.569 56.858C126.833 56.498 127.157 56.012 127.541 55.4C127.721 55.112 127.907 54.854 128.099 54.626C128.303 54.398 128.531 54.206 128.783 54.05C129.047 53.882 129.353 53.75 129.701 53.654C130.049 53.546 130.469 53.468 130.961 53.42L131.321 53.6C131.549 54.5 131.711 55.292 131.807 55.976C131.903 56.66 131.951 57.158 131.951 57.47C131.951 57.674 131.921 57.872 131.861 58.064C131.801 58.244 131.723 58.406 131.627 58.55C131.531 58.682 131.423 58.79 131.303 58.874C131.183 58.958 131.069 59 130.961 59ZM127.487 56.66C127.463 56.696 127.439 56.732 127.415 56.768C127.403 56.804 127.385 56.834 127.361 56.858C127.625 57.038 127.919 57.206 128.243 57.362C128.579 57.518 128.921 57.656 129.269 57.776C129.629 57.884 129.977 57.98 130.313 58.064C130.649 58.136 130.955 58.178 131.231 58.19C131.231 58.01 131.219 57.782 131.195 57.506C131.171 57.218 131.135 56.906 131.087 56.57C131.051 56.234 130.997 55.88 130.925 55.508C130.853 55.136 130.775 54.77 130.691 54.41C130.283 54.458 129.941 54.512 129.665 54.572C129.401 54.62 129.155 54.716 128.927 54.86C128.711 55.004 128.489 55.22 128.261 55.508C128.045 55.784 127.787 56.168 127.487 56.66Z" fill="#0B0C17"/>
<path d="M75.8883 33.18C76.4483 32.98 76.9683 32.74 77.4483 32.46C77.9283 32.18 78.355 31.8733 78.7283 31.54C79.115 31.22 79.4416 30.8867 79.7083 30.54C79.9883 30.1933 80.195 29.8533 80.3283 29.52C80.2616 29.2533 80.175 28.9533 80.0683 28.62C79.975 28.2867 79.855 27.94 79.7083 27.58C79.575 27.2067 79.4283 26.8333 79.2683 26.46C79.1216 26.0733 78.9683 25.7 78.8083 25.34L80.6283 24.18L80.9883 24.32C81.1483 24.72 81.2883 25.1333 81.4083 25.56C81.5283 25.9733 81.635 26.3867 81.7283 26.8C81.8216 27.2 81.8883 27.5867 81.9283 27.96C81.9816 28.3333 82.0083 28.6667 82.0083 28.96C82.0083 29.8933 81.8816 30.7067 81.6283 31.4C81.375 32.1067 81.075 32.6933 80.7283 33.16C80.3816 33.64 80.0283 34 79.6683 34.24C79.3083 34.48 79.0283 34.6 78.8283 34.6C78.7616 34.6 78.675 34.5933 78.5683 34.58C78.4616 34.5667 78.3016 34.54 78.0883 34.5C77.875 34.46 77.595 34.4067 77.2483 34.34C76.8883 34.2733 76.435 34.18 75.8883 34.06V33.18ZM87.2646 30C86.6512 30 86.1312 29.94 85.7046 29.82C85.2912 29.6867 84.9512 29.4733 84.6846 29.18C84.4312 28.8733 84.2446 28.4733 84.1246 27.98C84.0046 27.4733 83.9446 26.8467 83.9446 26.1V21.56C83.9446 21.16 83.9312 20.8 83.9046 20.48C83.8779 20.1467 83.8379 19.8333 83.7846 19.54C83.7312 19.2333 83.6512 18.94 83.5446 18.66C83.4512 18.3667 83.3379 18.06 83.2046 17.74L84.9046 16.16C85.1046 16.5867 85.2646 16.98 85.3846 17.34C85.5046 17.7 85.5912 18.06 85.6446 18.42C85.7112 18.78 85.7512 19.1533 85.7646 19.54C85.7779 19.9133 85.7846 20.3267 85.7846 20.78V26.74C85.9312 26.9533 86.1512 27.0933 86.4446 27.16C86.7512 27.2267 87.0246 27.26 87.2646 27.26V30ZM87.2577 30C87.0444 30 86.9044 29.8667 86.8377 29.6C86.7577 29.3333 86.7177 29.0133 86.7177 28.64C86.7177 28.2533 86.7577 27.9267 86.8377 27.66C86.9044 27.3933 87.0444 27.26 87.2577 27.26C88.111 27.26 88.8244 27.24 89.3977 27.2C89.971 27.16 90.431 27.0733 90.7777 26.94C90.7377 26.7 90.6777 26.4267 90.5977 26.12C90.5177 25.8133 90.4244 25.5067 90.3177 25.2C90.211 24.88 90.0977 24.5733 89.9777 24.28C89.8577 23.9733 89.7444 23.7 89.6377 23.46L91.3777 22.22L91.7377 22.36C91.9644 22.92 92.1444 23.5333 92.2777 24.2C92.4244 24.8667 92.4977 25.5133 92.4977 26.14C92.4977 26.5267 92.451 26.9067 92.3577 27.28C92.2777 27.64 92.1644 27.9733 92.0177 28.28C91.871 28.5867 91.7044 28.8533 91.5177 29.08C91.3444 29.3067 91.1644 29.4733 90.9777 29.58C90.7244 29.7267 90.2777 29.8333 89.6377 29.9C88.9977 29.9667 88.2044 30 87.2577 30ZM88.2777 31.66L90.2177 32.9L91.0577 31.66L92.9977 32.86L91.9177 34.66L89.9577 33.42L89.1177 34.66L87.1977 33.44L88.2777 31.66ZM109.547 30C108.934 30 108.414 29.9333 107.987 29.8C107.574 29.6667 107.214 29.4533 106.907 29.16C106.854 29.2267 106.801 29.2867 106.747 29.34C106.694 29.3933 106.641 29.44 106.587 29.48C106.321 29.6667 105.801 29.82 105.027 29.94C104.254 30.0467 103.347 30.1 102.307 30.1C101.547 30.1 100.834 30.0733 100.167 30.02C99.5006 29.9667 98.9206 29.84 98.4272 29.64C97.9339 29.4267 97.5472 29.12 97.2672 28.72C96.9872 28.3067 96.8472 27.7467 96.8472 27.04C96.8472 26.7333 96.8606 26.38 96.8872 25.98C96.9139 25.58 96.9406 25.2067 96.9672 24.86C97.0072 24.4467 97.0472 24.0333 97.0872 23.62L98.6872 23.7C98.6339 24.4867 98.5939 25.12 98.5672 25.6C98.5406 26.08 98.5272 26.48 98.5272 26.8C98.8472 27 99.3339 27.1467 99.9872 27.24C100.641 27.32 101.414 27.36 102.307 27.36C102.747 27.36 103.207 27.3533 103.687 27.34C104.167 27.3267 104.561 27.2867 104.867 27.22C104.534 26.8067 104.367 26.38 104.367 25.94C104.367 25.7133 104.394 25.4733 104.447 25.22C104.501 24.9667 104.614 24.66 104.787 24.3C104.974 23.94 105.241 23.5133 105.587 23.02C105.934 22.5267 106.394 21.9267 106.967 21.22L107.387 21.12C108.041 21.4667 108.574 21.7867 108.987 22.08C109.401 22.36 109.721 22.64 109.947 22.92C110.187 23.1867 110.347 23.46 110.427 23.74C110.507 24.02 110.547 24.32 110.547 24.64C110.547 25 110.467 25.4067 110.307 25.86C110.147 26.3 109.887 26.7533 109.527 27.22C109.634 27.2467 109.754 27.26 109.887 27.26C110.021 27.26 110.147 27.26 110.267 27.26H111.587V30H109.547ZM105.907 25.48C105.947 25.8133 106.134 26.1467 106.467 26.48C106.801 26.8 107.221 27.0333 107.727 27.18C108.087 26.8733 108.341 26.58 108.487 26.3C108.647 26.0067 108.727 25.7467 108.727 25.52C108.727 25.4 108.707 25.2733 108.667 25.14C108.641 25.0067 108.567 24.8667 108.447 24.72C108.327 24.5733 108.154 24.42 107.927 24.26C107.714 24.0867 107.421 23.9 107.047 23.7C106.367 24.42 105.987 25.0133 105.907 25.48ZM105.687 18.98L106.767 17.2L108.767 18.46L107.607 20.18L105.687 18.98ZM118.374 30C118.107 30 117.834 29.9867 117.554 29.96C117.287 29.9333 117.027 29.8667 116.774 29.76C116.534 29.64 116.307 29.4667 116.094 29.24C115.88 29 115.694 28.6733 115.534 28.26C115.32 28.7267 115.147 29.0467 115.014 29.22C114.894 29.3933 114.747 29.52 114.574 29.6C113.987 29.8667 112.994 30 111.594 30C111.38 30 111.24 29.8667 111.174 29.6C111.094 29.3333 111.054 29.0133 111.054 28.64C111.054 28.2533 111.094 27.9267 111.174 27.66C111.24 27.3933 111.38 27.26 111.594 27.26C112.194 27.26 112.74 27.24 113.234 27.2C113.727 27.16 114.14 27.08 114.474 26.96L115.054 24.06H116.834C116.82 24.4067 116.807 24.6933 116.794 24.92C116.794 25.1333 116.794 25.3067 116.794 25.44C116.794 25.5733 116.794 25.68 116.794 25.76C116.794 25.8267 116.794 25.88 116.794 25.92C116.794 26.3733 116.94 26.7133 117.234 26.94C117.527 27.1533 117.907 27.26 118.374 27.26V30ZM113.654 21.58L114.734 19.8L116.734 21.06L115.574 22.78L113.654 21.58ZM124.991 30C124.524 30 124.111 29.98 123.751 29.94C123.391 29.8867 123.071 29.8067 122.791 29.7C122.524 29.58 122.291 29.42 122.091 29.22C121.904 29.02 121.744 28.7667 121.611 28.46C121.504 28.66 121.404 28.8267 121.311 28.96C121.231 29.0933 121.151 29.2067 121.071 29.3C121.004 29.38 120.931 29.4467 120.851 29.5C120.771 29.5533 120.684 29.6067 120.591 29.66C120.338 29.8067 119.991 29.9 119.551 29.94C119.124 29.98 118.731 30 118.371 30C118.158 30 118.018 29.8667 117.951 29.6C117.871 29.3333 117.831 29.0133 117.831 28.64C117.831 28.2533 117.871 27.9267 117.951 27.66C118.018 27.3933 118.158 27.26 118.371 27.26C118.504 27.26 118.671 27.26 118.871 27.26C119.071 27.2467 119.278 27.2333 119.491 27.22C119.718 27.1933 119.938 27.1667 120.151 27.14C120.364 27.1133 120.564 27.0733 120.751 27.02L121.351 24.06H122.871C122.858 24.4067 122.844 24.6933 122.831 24.92C122.831 25.1333 122.831 25.3067 122.831 25.44C122.831 25.5733 122.831 25.68 122.831 25.76C122.831 25.8267 122.831 25.88 122.831 25.92C122.831 26.1733 122.878 26.3867 122.971 26.56C124.264 25.4533 125.291 24.5867 126.051 23.96C126.824 23.32 127.418 22.84 127.831 22.52C128.258 22.2 128.558 22 128.731 21.92C128.918 21.84 129.078 21.8 129.211 21.8C129.571 21.8 129.938 21.9133 130.311 22.14C130.698 22.3533 131.038 22.6533 131.331 23.04C131.638 23.4133 131.884 23.8533 132.071 24.36C132.271 24.8667 132.371 25.4133 132.371 26C132.371 26.2533 132.331 26.5533 132.251 26.9C132.184 27.2467 132.078 27.5933 131.931 27.94C131.798 28.2733 131.624 28.58 131.411 28.86C131.211 29.1267 130.984 29.32 130.731 29.44C130.318 29.6267 129.784 29.7667 129.131 29.86C128.491 29.9533 127.684 30 126.711 30H124.991ZM128.551 24.24C128.458 24.24 128.324 24.2867 128.151 24.38C127.991 24.46 127.751 24.6133 127.431 24.84C127.111 25.0533 126.698 25.36 126.191 25.76C125.684 26.1467 125.051 26.6467 124.291 27.26H127.751C128.151 27.26 128.498 27.2533 128.791 27.24C129.084 27.2267 129.344 27.2067 129.571 27.18C129.798 27.1533 129.998 27.12 130.171 27.08C130.344 27.04 130.504 26.9933 130.651 26.94C130.611 26.58 130.504 26.24 130.331 25.92C130.171 25.6 129.984 25.3133 129.771 25.06C129.571 24.8067 129.358 24.6067 129.131 24.46C128.904 24.3133 128.711 24.24 128.551 24.24Z" fill="#0B0C17"/>
</svg>
