<svg width="168" height="67" viewBox="0 0 168 67" fill="none" xmlns="http://www.w3.org/2000/svg">
<path d="M120.865 57.0116C119.068 56.1627 117.059 54.6592 115.242 53.7306C112.271 52.2124 112.825 47.8691 112.843 45.0488L112.861 38.2843L112.849 28.856C112.845 25.8654 112.198 21.02 115.168 19.2602C122.448 14.9469 129.731 10.5809 137.144 6.50271C139.941 4.96427 142.067 6.71242 144.398 8.07516L149.607 11.0925L155.439 14.3859C156.408 14.9323 157.858 15.6941 158.717 16.3083L158.748 16.3807C155.749 23.0062 152.937 29.6919 150 36.3433C149.289 37.9524 148.596 39.8377 147.762 41.3495C147.016 41.7308 146.762 41.902 146.087 42.3969C142.46 39.2273 138.208 36.3704 134.244 33.5888C133.997 32.6177 133.733 31.8342 132.724 31.4216C132.194 31.2058 131.598 31.2228 131.08 31.4686C130.553 31.7144 130.156 32.173 129.988 32.7298C129.722 33.5893 130.037 34.1028 130.431 34.8584C128.777 38.2798 127.214 42.2724 125.679 45.7892C124.088 49.4333 122.317 53.3374 120.865 57.0116Z" fill="#55AA35"/>
<path d="M160.352 17.1917C162.036 18.4029 165.123 19.5525 165.67 21.6648C166.185 23.652 166.037 26.4756 166.037 28.5443L166.039 44.8507C166.034 53.7806 165.877 52.3874 158.301 56.8393C154.603 59.051 150.876 61.2132 147.121 63.3252C145.548 64.2302 141.89 66.5537 140.392 66.887C139.553 67.0769 138.677 67.0267 137.864 66.7419C136.544 66.283 134.778 65.124 133.523 64.3992C130.534 62.7105 127.582 60.9572 124.669 59.1405L122.359 57.8808L128.718 43.3218C129.668 41.1479 131.312 37.7208 132.053 35.6063C132.394 35.4624 133.064 35.0789 133.407 35.0622C133.746 35.0458 144.425 42.9159 145.665 43.7911C145.708 43.9849 145.758 44.1771 145.814 44.3675C145.993 44.9722 146.317 45.2991 146.882 45.5877C147.441 45.875 148.094 45.9142 148.683 45.696C149.218 45.5086 149.643 45.0953 149.845 44.5656C150.197 43.6686 149.887 42.9882 149.522 42.1853C149.517 42.1744 149.512 42.1634 149.507 42.1523C152.786 34.0747 156.821 25.2032 160.352 17.1917Z" fill="#001B27"/>
<path d="M158.717 16.3083L158.748 16.3807C155.749 23.0062 152.937 29.6919 150 36.3433C149.289 37.9524 148.596 39.8377 147.762 41.3495C147.016 41.7308 146.762 41.902 146.087 42.3969C142.46 39.2273 138.208 36.3704 134.244 33.5888C133.997 32.6177 133.733 31.8342 132.724 31.4216C132.194 31.2058 131.598 31.2228 131.08 31.4686C130.553 31.7144 130.156 32.173 129.988 32.7298C129.722 33.5893 130.037 34.1028 130.431 34.8584C128.777 38.2798 127.214 42.2724 125.679 45.7892C124.088 49.4333 122.317 53.3374 120.865 57.0116L122.359 57.8808L128.718 43.3218C129.668 41.1479 131.312 37.7208 132.053 35.6063C132.394 35.4624 133.064 35.0789 133.407 35.0622C133.746 35.0458 144.425 42.9159 145.665 43.7911C145.708 43.9849 145.758 44.1771 145.814 44.3675C145.993 44.9722 146.317 45.2991 146.882 45.5877C147.441 45.875 148.094 45.9142 148.683 45.696C149.218 45.5086 149.643 45.0953 149.845 44.5656C150.197 43.6686 149.887 42.9882 149.522 42.1853L149.507 42.1523C152.786 34.0747 156.821 25.2032 160.352 17.1917C161.239 15.3986 162.054 13.5192 162.716 11.6362C163.884 11.9981 165.762 12.8444 167.005 13.3114C167.067 9.17186 167.568 4.18578 167.787 0C166.447 1.02503 164.856 2.43019 163.523 3.53299C161.215 5.45558 158.87 7.33107 156.486 9.15829C157.917 9.78071 159.68 10.4041 161.159 10.9656C160.284 12.7179 159.469 14.4999 158.717 16.3083Z" fill="#05668D"/>
<path d="M5.27054e-05 59.06C0.492053 58.94 0.954053 58.76 1.38605 58.52C1.81805 58.28 2.20205 58.01 2.53805 57.71C2.88605 57.41 3.18005 57.08 3.42005 56.72C3.66005 56.372 3.83405 56.018 3.94205 55.658C3.90605 55.43 3.84605 55.166 3.76205 54.866C3.67805 54.566 3.57605 54.254 3.45605 53.93C3.34805 53.606 3.22805 53.276 3.09605 52.94C2.97605 52.604 2.85005 52.286 2.71805 51.986L3.96005 51.158L4.26605 51.266C4.53005 51.914 4.74005 52.604 4.89605 53.336C5.06405 54.068 5.14805 54.704 5.14805 55.244C5.14805 56.024 5.02805 56.72 4.78805 57.332C4.56005 57.944 4.28405 58.454 3.96005 58.862C3.63605 59.282 3.30005 59.6 2.95205 59.816C2.61605 60.032 2.34005 60.14 2.12405 60.14C2.02805 60.14 1.83005 60.116 1.53005 60.068C1.24205 60.02 0.732053 59.918 5.27054e-05 59.762V59.06ZM7.3591 55.874L7.1971 48.512C7.1851 48.092 7.1671 47.726 7.1431 47.414C7.1191 47.102 7.0831 46.82 7.0351 46.568C6.9991 46.304 6.9451 46.046 6.8731 45.794C6.8011 45.542 6.7111 45.272 6.6031 44.984L7.8631 43.868C8.0191 44.228 8.1451 44.57 8.2411 44.894C8.3371 45.218 8.4091 45.542 8.4571 45.866C8.5051 46.19 8.5351 46.526 8.5471 46.874C8.5591 47.21 8.5651 47.576 8.5651 47.972V55.604L7.6291 56L7.3591 55.874ZM14.6514 56C14.0873 56 13.6673 55.922 13.3913 55.766C13.3313 56.474 13.1813 57.098 12.9413 57.638C12.7013 58.178 12.4253 58.634 12.1133 59.006C11.8013 59.378 11.4833 59.66 11.1593 59.852C10.8473 60.044 10.5953 60.14 10.4033 60.14C10.3073 60.14 10.1093 60.116 9.80935 60.068C9.52135 60.02 9.01135 59.918 8.27935 59.762V59.06C8.77135 58.94 9.23335 58.76 9.66535 58.52C10.0973 58.28 10.4813 58.01 10.8173 57.71C11.1653 57.41 11.4593 57.08 11.6993 56.72C11.9393 56.372 12.1133 56.018 12.2213 55.658C12.1853 55.43 12.1253 55.166 12.0413 54.866C11.9573 54.566 11.8553 54.254 11.7353 53.93C11.6273 53.606 11.5073 53.276 11.3753 52.94C11.2553 52.604 11.1293 52.286 10.9973 51.986L12.2393 51.158L12.5453 51.266C12.6293 51.542 12.7133 51.812 12.7973 52.076C12.8813 52.34 12.9593 52.592 13.0313 52.832C13.1033 53.06 13.1693 53.264 13.2293 53.444C13.2893 53.612 13.3433 53.738 13.3913 53.822C13.4993 53.918 13.6493 53.99 13.8413 54.038C14.0333 54.074 14.3033 54.092 14.6514 54.092V56ZM10.4573 48.998L11.2673 47.648L12.8513 48.638L11.9873 49.952L10.4573 48.998ZM14.658 56C14.502 56 14.388 55.91 14.316 55.73C14.244 55.55 14.208 55.322 14.208 55.046C14.208 54.77 14.244 54.542 14.316 54.362C14.388 54.182 14.502 54.092 14.658 54.092C15.366 54.092 15.99 54.074 16.53 54.038C17.07 53.99 17.496 53.894 17.808 53.75C17.784 53.558 17.742 53.324 17.682 53.048C17.622 52.76 17.55 52.466 17.466 52.166C17.382 51.854 17.286 51.548 17.178 51.248C17.082 50.948 16.98 50.678 16.872 50.438L18.078 49.574L18.366 49.682C18.45 49.898 18.534 50.144 18.618 50.42C18.702 50.696 18.774 50.984 18.834 51.284C18.906 51.572 18.96 51.866 18.996 52.166C19.032 52.466 19.05 52.742 19.05 52.994C19.05 53.306 19.014 53.6 18.942 53.876C18.87 54.152 18.774 54.41 18.654 54.65C18.546 54.878 18.42 55.076 18.276 55.244C18.132 55.412 17.988 55.532 17.844 55.604C17.604 55.736 17.208 55.838 16.656 55.91C16.104 55.97 15.438 56 14.658 56ZM17.034 58.52L16.17 59.834L14.64 58.88L15.45 57.53L17.034 58.52ZM21.3161 55.874L21.1541 48.512C21.1421 48.092 21.1241 47.726 21.1001 47.414C21.0761 47.102 21.0401 46.82 20.9921 46.568C20.9561 46.304 20.9021 46.046 20.8301 45.794C20.7581 45.542 20.6681 45.272 20.5601 44.984L21.8201 43.868C21.9761 44.228 22.1021 44.57 22.1981 44.894C22.2941 45.218 22.3661 45.542 22.4141 45.866C22.4621 46.19 22.4921 46.526 22.5041 46.874C22.5161 47.21 22.5221 47.576 22.5221 47.972V55.604L21.5861 56L21.3161 55.874ZM39.4887 56C39.2847 56 39.0747 55.994 38.8587 55.982C38.6547 55.958 38.4507 55.904 38.2467 55.82C38.0547 55.724 37.8687 55.586 37.6887 55.406C37.5087 55.226 37.3587 54.98 37.2387 54.668C37.0347 55.064 36.8187 55.328 36.5907 55.46C36.2907 55.616 35.7567 55.76 34.9887 55.892C34.2327 56.024 33.2427 56.09 32.0187 56.09C31.3587 56.09 30.7347 56.066 30.1467 56.018C29.5707 55.97 29.0667 55.862 28.6347 55.694C28.2027 55.526 27.8607 55.274 27.6087 54.938C27.3567 54.602 27.2307 54.152 27.2307 53.588C27.2307 53.312 27.2427 53 27.2667 52.652C27.2907 52.304 27.3147 51.98 27.3387 51.68C27.3747 51.332 27.4107 50.984 27.4467 50.636L28.6167 50.708C28.5687 51.356 28.5267 51.902 28.4907 52.346C28.4667 52.778 28.4487 53.174 28.4367 53.534C28.7247 53.762 29.1867 53.93 29.8227 54.038C30.4587 54.134 31.1907 54.182 32.0187 54.182C32.9067 54.182 33.7407 54.146 34.5207 54.074C35.3007 54.002 35.9187 53.888 36.3747 53.732L36.8787 51.158H38.1387C38.1267 51.482 38.1147 51.746 38.1027 51.95C38.1027 52.142 38.0967 52.304 38.0847 52.436C38.0847 52.556 38.0847 52.646 38.0847 52.706C38.0847 52.766 38.0847 52.82 38.0847 52.868C38.0847 53.312 38.2227 53.63 38.4987 53.822C38.7867 54.002 39.1167 54.092 39.4887 54.092V56ZM31.0287 47.504L32.6127 48.494L31.7487 49.808L30.2007 48.854L31.0287 47.504ZM32.5767 48.818L33.4407 47.504L34.9707 48.458L34.1607 49.808L32.5767 48.818ZM49.1438 56C48.6998 56 48.2798 55.94 47.8838 55.82C47.4879 55.7 47.1699 55.454 46.9298 55.082C46.8099 55.358 46.6478 55.58 46.4438 55.748C46.2518 55.916 46.0658 56 45.8858 56C45.6098 56 45.2858 55.958 44.9139 55.874C44.5539 55.778 44.1878 55.664 43.8158 55.532C43.4438 55.388 43.0898 55.232 42.7538 55.064C42.4298 54.896 42.1598 54.74 41.9438 54.596C41.5238 55.136 41.1278 55.508 40.7558 55.712C40.3958 55.904 39.9758 56 39.4958 56C39.3398 56 39.2258 55.91 39.1538 55.73C39.0818 55.55 39.0458 55.322 39.0458 55.046C39.0458 54.77 39.0818 54.542 39.1538 54.362C39.2258 54.182 39.3398 54.092 39.4958 54.092C39.8798 54.092 40.1978 54.056 40.4498 53.984C40.7138 53.912 40.9538 53.78 41.1698 53.588C41.3858 53.396 41.6078 53.132 41.8358 52.796C42.0638 52.448 42.3458 52.004 42.6818 51.464C42.8858 51.14 43.0958 50.864 43.3118 50.636C43.5278 50.408 43.7738 50.216 44.0498 50.06C44.3259 49.904 44.6439 49.79 45.0039 49.718C45.3639 49.634 45.7898 49.574 46.2818 49.538L46.6599 49.79C46.7439 50.114 46.8219 50.462 46.8938 50.834C46.9658 51.206 47.0319 51.566 47.0918 51.914C47.1639 52.262 47.2239 52.586 47.2718 52.886C47.3318 53.174 47.3858 53.408 47.4338 53.588C47.5899 53.78 47.8059 53.912 48.0819 53.984C48.3699 54.056 48.7239 54.092 49.1438 54.092V56ZM45.6158 51.284C45.2558 51.32 44.9618 51.362 44.7338 51.41C44.5058 51.458 44.2958 51.548 44.1038 51.68C43.9118 51.8 43.7198 51.986 43.5278 52.238C43.3478 52.478 43.1258 52.814 42.8618 53.246C43.0778 53.378 43.3178 53.504 43.5818 53.624C43.8578 53.744 44.1398 53.852 44.4278 53.948C44.7158 54.032 45.0038 54.104 45.2919 54.164C45.5798 54.212 45.8438 54.242 46.0839 54.254C46.0718 53.894 46.0238 53.438 45.9398 52.886C45.8558 52.322 45.7478 51.788 45.6158 51.284ZM54.8702 56C54.6542 56 54.4382 55.988 54.2222 55.964C54.0062 55.94 53.7902 55.88 53.5742 55.784C53.3702 55.688 53.1782 55.55 52.9982 55.37C52.8302 55.19 52.6862 54.938 52.5662 54.614C52.4222 54.926 52.2962 55.154 52.1882 55.298C52.0802 55.43 51.9602 55.532 51.8282 55.604C51.3482 55.868 50.4542 56 49.1462 56C48.9902 56 48.8762 55.91 48.8042 55.73C48.7322 55.55 48.6962 55.322 48.6962 55.046C48.6962 54.77 48.7322 54.542 48.8042 54.362C48.8762 54.182 48.9902 54.092 49.1462 54.092C49.7582 54.092 50.2802 54.074 50.7122 54.038C51.1442 53.99 51.4862 53.918 51.7382 53.822L52.2422 51.158H53.4842C53.4722 51.482 53.4602 51.746 53.4482 51.95C53.4482 52.142 53.4482 52.304 53.4482 52.436C53.4482 52.556 53.4482 52.646 53.4482 52.706C53.4482 52.766 53.4482 52.82 53.4482 52.868C53.4482 53.312 53.5862 53.63 53.8622 53.822C54.1502 54.002 54.4862 54.092 54.8702 54.092V56ZM53.9702 58.484L53.1602 59.834L51.5762 58.844L52.4402 57.53L53.9702 58.484ZM50.0282 57.53L51.6122 58.52L50.7482 59.834L49.2002 58.88L50.0282 57.53ZM54.8767 56C54.7207 56 54.6067 55.91 54.5347 55.73C54.4627 55.55 54.4267 55.322 54.4267 55.046C54.4267 54.77 54.4627 54.542 54.5347 54.362C54.6067 54.182 54.7207 54.092 54.8767 54.092H56.2447C57.2647 54.092 58.1047 54.05 58.7647 53.966C59.4247 53.882 59.9407 53.762 60.3127 53.606C60.3127 53.15 60.2947 52.706 60.2587 52.274C59.8987 52.382 59.5267 52.466 59.1427 52.526C58.7707 52.574 58.3087 52.598 57.7567 52.598C57.0967 52.598 56.6047 52.466 56.2807 52.202C55.9567 51.938 55.7947 51.578 55.7947 51.122C55.7947 50.906 55.8307 50.624 55.9027 50.276C55.9747 49.928 56.0647 49.568 56.1727 49.196C56.2807 48.812 56.3947 48.434 56.5147 48.062C56.6347 47.678 56.7427 47.348 56.8387 47.072C56.9107 47.036 56.9707 46.994 57.0187 46.946C57.0667 46.91 57.1087 46.88 57.1447 46.856C57.1807 46.82 57.2047 46.796 57.2167 46.784C58.0927 46.796 58.8007 46.976 59.3407 47.324C59.8927 47.66 60.3187 48.104 60.6187 48.656C60.9307 49.196 61.1407 49.808 61.2487 50.492C61.3687 51.176 61.4287 51.86 61.4287 52.544C61.4287 52.94 61.3867 53.3 61.3027 53.624C61.2307 53.936 61.1287 54.218 60.9967 54.47C60.8767 54.71 60.7387 54.914 60.5827 55.082C60.4267 55.25 60.2707 55.376 60.1147 55.46C59.8267 55.616 59.3527 55.748 58.6927 55.856C58.0327 55.952 57.1627 56 56.0827 56H54.8767ZM58.2067 51.014C58.5547 51.014 58.8847 50.996 59.1967 50.96C59.5207 50.912 59.8027 50.858 60.0427 50.798C59.9587 50.462 59.8447 50.15 59.7007 49.862C59.5687 49.574 59.3947 49.328 59.1787 49.124C58.9747 48.92 58.7227 48.758 58.4227 48.638C58.1347 48.506 57.7927 48.434 57.3967 48.422C57.3487 48.53 57.2947 48.686 57.2347 48.89C57.1747 49.094 57.1087 49.31 57.0367 49.538C56.9767 49.766 56.9227 49.988 56.8747 50.204C56.8267 50.42 56.7907 50.582 56.7667 50.69C56.9107 50.822 57.0967 50.912 57.3247 50.96C57.5647 50.996 57.8587 51.014 58.2067 51.014ZM56.4607 43.202L58.0447 44.192L57.1807 45.506L55.6327 44.552L56.4607 43.202ZM58.0087 44.516L58.8727 43.202L60.4027 44.156L59.5927 45.506L58.0087 44.516ZM67.5213 56.846C67.5213 57.758 67.7793 58.418 68.2953 58.826C68.8233 59.234 69.6933 59.438 70.9053 59.438C71.1213 59.438 71.3373 59.438 71.5533 59.438C71.7813 59.438 72.0213 59.432 72.2733 59.42C72.5253 59.408 72.8013 59.39 73.1013 59.366C73.4133 59.354 73.7673 59.33 74.1633 59.294L74.3433 59.546L73.9293 60.95C73.2213 61.046 72.5913 61.1 72.0393 61.112C71.4993 61.124 71.0553 61.13 70.7073 61.13C70.0713 61.13 69.4893 61.07 68.9613 60.95C68.4453 60.83 67.9953 60.626 67.6113 60.338C67.2273 60.05 66.9273 59.66 66.7113 59.168C66.5073 58.688 66.4053 58.082 66.4053 57.35V56.99C66.4053 56.786 66.4233 56.564 66.4593 56.324C66.4953 56.084 66.5853 55.814 66.7293 55.514C66.8733 55.214 67.0893 54.89 67.3773 54.542C67.6653 54.182 68.0673 53.786 68.5833 53.354C68.2713 52.85 67.9653 52.376 67.6653 51.932C67.3653 51.476 67.0773 51.086 66.8013 50.762L66.1173 50.816L65.9553 50.546L66.3693 49.304C66.9813 49.22 67.5213 49.154 67.9893 49.106C68.4573 49.046 68.8713 49.004 69.2313 48.98C69.5913 48.944 69.9093 48.92 70.1853 48.908C70.4613 48.896 70.7193 48.89 70.9593 48.89C71.8593 48.89 72.5073 49.058 72.9033 49.394C73.2993 49.718 73.4973 50.162 73.4973 50.726C73.4973 51.182 73.3353 51.686 73.0113 52.238C72.6873 52.79 72.1473 53.36 71.3913 53.948C71.5713 54.008 71.7753 54.05 72.0033 54.074C72.2433 54.086 72.5613 54.092 72.9573 54.092H74.5053V56H72.4173C72.0573 56 71.7393 55.988 71.4633 55.964C71.1873 55.928 70.9293 55.862 70.6893 55.766C70.4493 55.658 70.2213 55.508 70.0053 55.316C69.7893 55.112 69.5613 54.842 69.3213 54.506C68.8653 54.854 68.4813 55.202 68.1693 55.55C67.8573 55.898 67.6413 56.246 67.5213 56.594V56.846ZM70.1853 53.48C70.8813 53.012 71.3853 52.586 71.6973 52.202C72.0093 51.806 72.1653 51.5 72.1653 51.284C72.1653 51.02 72.0513 50.822 71.8233 50.69C71.6073 50.558 71.2893 50.492 70.8693 50.492C70.6293 50.492 70.2753 50.51 69.8073 50.546C69.3393 50.57 68.8353 50.624 68.2953 50.708C68.4033 50.864 68.5353 51.056 68.6913 51.284C68.8473 51.512 69.0093 51.752 69.1773 52.004C69.3453 52.256 69.5133 52.514 69.6813 52.778C69.8613 53.03 70.0293 53.264 70.1853 53.48ZM74.5115 56C74.3555 56 74.2415 55.91 74.1695 55.73C74.0975 55.55 74.0615 55.322 74.0615 55.046C74.0615 54.77 74.0975 54.542 74.1695 54.362C74.2415 54.182 74.3555 54.092 74.5115 54.092H75.7715C76.2515 54.092 76.6595 54.086 76.9955 54.074C77.3435 54.05 77.6375 54.02 77.8775 53.984C78.1175 53.948 78.3155 53.9 78.4715 53.84C78.6395 53.78 78.7835 53.714 78.9035 53.642C79.1675 53.474 79.4075 53.312 79.6235 53.156C79.8395 53 80.0495 52.844 80.2535 52.688C80.4695 52.532 80.6915 52.376 80.9195 52.22C81.1475 52.052 81.3995 51.878 81.6755 51.698C80.7515 51.374 79.9415 51.11 79.2455 50.906C78.5615 50.702 78.0995 50.6 77.8595 50.6C77.6915 50.6 77.5115 50.63 77.3195 50.69C77.1395 50.75 76.9895 50.828 76.8695 50.924C76.8695 51.236 76.8695 51.506 76.8695 51.734C76.8695 51.962 76.8755 52.19 76.8875 52.418L76.0595 52.904L75.8435 52.724C75.8195 52.412 75.8015 52.172 75.7895 52.004C75.7895 51.836 75.7895 51.65 75.7895 51.446C75.7895 50.846 75.8075 50.438 75.8435 50.222C75.8915 50.006 75.9455 49.868 76.0055 49.808C76.0295 49.784 76.0955 49.73 76.2035 49.646C76.3235 49.55 76.4675 49.454 76.6355 49.358C76.8155 49.262 77.0135 49.178 77.2295 49.106C77.4575 49.022 77.6975 48.98 77.9495 48.98C78.1775 48.98 78.4955 49.028 78.9035 49.124C79.3115 49.22 79.7795 49.352 80.3075 49.52C80.8475 49.688 81.4415 49.886 82.0895 50.114C82.7375 50.342 83.4275 50.582 84.1595 50.834L84.2315 51.158L83.6015 52.346C83.3735 52.358 83.1755 52.376 83.0075 52.4C82.8515 52.412 82.6775 52.472 82.4855 52.58C82.2935 52.676 82.0655 52.832 81.8015 53.048C81.5495 53.252 81.2195 53.552 80.8115 53.948C80.3075 54.404 79.8695 54.77 79.4975 55.046C79.1375 55.31 78.7835 55.514 78.4355 55.658C78.0875 55.802 77.7095 55.898 77.3015 55.946C76.8935 55.982 76.3955 56 75.8075 56H74.5115ZM80.1815 58.52L79.3175 59.834L77.7875 58.88L78.5975 57.53L80.1815 58.52ZM89.9912 56C89.4272 56 89.0072 55.922 88.7312 55.766C88.6712 56.474 88.5212 57.098 88.2812 57.638C88.0412 58.178 87.7652 58.634 87.4532 59.006C87.1412 59.378 86.8232 59.66 86.4992 59.852C86.1872 60.044 85.9352 60.14 85.7432 60.14C85.6472 60.14 85.4492 60.116 85.1492 60.068C84.8612 60.02 84.3512 59.918 83.6192 59.762V59.06C84.1112 58.94 84.5732 58.76 85.0052 58.52C85.4372 58.28 85.8212 58.01 86.1572 57.71C86.5052 57.41 86.7992 57.08 87.0392 56.72C87.2792 56.372 87.4532 56.018 87.5612 55.658C87.5252 55.43 87.4652 55.166 87.3812 54.866C87.2972 54.566 87.1952 54.254 87.0752 53.93C86.9672 53.606 86.8472 53.276 86.7152 52.94C86.5952 52.604 86.4692 52.286 86.3372 51.986L87.5792 51.158L87.8852 51.266C87.9692 51.542 88.0532 51.812 88.1372 52.076C88.2212 52.34 88.2992 52.592 88.3712 52.832C88.4432 53.06 88.5092 53.264 88.5692 53.444C88.6292 53.612 88.6832 53.738 88.7312 53.822C88.8392 53.918 88.9892 53.99 89.1812 54.038C89.3732 54.074 89.6432 54.092 89.9912 54.092V56ZM96.3878 56C96.1118 56 95.7878 55.958 95.4158 55.874C95.0558 55.778 94.6898 55.664 94.3178 55.532C93.9458 55.388 93.5918 55.232 93.2558 55.064C92.9318 54.896 92.6618 54.74 92.4458 54.596C92.0258 55.136 91.6298 55.508 91.2578 55.712C90.8978 55.904 90.4778 56 89.9978 56C89.8418 56 89.7278 55.91 89.6558 55.73C89.5838 55.55 89.5478 55.322 89.5478 55.046C89.5478 54.77 89.5838 54.542 89.6558 54.362C89.7278 54.182 89.8418 54.092 89.9978 54.092C90.3818 54.092 90.6998 54.056 90.9518 53.984C91.2158 53.912 91.4558 53.78 91.6718 53.588C91.8878 53.396 92.1098 53.132 92.3378 52.796C92.5658 52.448 92.8478 52.004 93.1838 51.464C93.3878 51.14 93.5978 50.864 93.8138 50.636C94.0298 50.408 94.2758 50.216 94.5518 50.06C94.8278 49.904 95.1458 49.79 95.5058 49.718C95.8658 49.634 96.2918 49.574 96.7838 49.538L97.1618 49.79C97.3898 50.678 97.5578 51.47 97.6658 52.166C97.7858 52.862 97.8458 53.402 97.8458 53.786C97.8458 54.074 97.7978 54.356 97.7018 54.632C97.6178 54.896 97.5038 55.13 97.3598 55.334C97.2158 55.538 97.0538 55.7 96.8738 55.82C96.7058 55.94 96.5438 56 96.3878 56ZM96.1178 51.284C95.7578 51.32 95.4638 51.362 95.2358 51.41C95.0078 51.458 94.7978 51.548 94.6058 51.68C94.4138 51.8 94.2218 51.986 94.0298 52.238C93.8498 52.478 93.6278 52.814 93.3638 53.246C93.5798 53.378 93.8198 53.504 94.0838 53.624C94.3598 53.744 94.6418 53.852 94.9298 53.948C95.2178 54.032 95.5058 54.104 95.7938 54.164C96.0818 54.212 96.3458 54.242 96.5858 54.254C96.5738 53.894 96.5258 53.438 96.4418 52.886C96.3578 52.322 96.2498 51.788 96.1178 51.284Z" fill="#6C6C6C"/>
<path d="M60.2442 31C59.6922 31 59.2242 30.946 58.8402 30.838C58.4682 30.718 58.1622 30.526 57.9222 30.262C57.6942 29.986 57.5262 29.626 57.4182 29.182C57.3102 28.726 57.2562 28.162 57.2562 27.49V23.404C57.2562 23.044 57.2442 22.72 57.2202 22.432C57.1962 22.132 57.1602 21.85 57.1122 21.586C57.0642 21.31 56.9922 21.046 56.8962 20.794C56.8122 20.53 56.7102 20.254 56.5902 19.966L58.1202 18.544C58.3002 18.928 58.4442 19.282 58.5522 19.606C58.6602 19.93 58.7382 20.254 58.7862 20.578C58.8462 20.902 58.8822 21.238 58.8942 21.586C58.9062 21.922 58.9122 22.294 58.9122 22.702V28.066C59.0442 28.258 59.2422 28.384 59.5062 28.444C59.7822 28.504 60.0282 28.534 60.2442 28.534V31ZM66.538 31C66.286 31 65.986 30.958 65.638 30.874C65.29 30.79 64.93 30.682 64.558 30.55C64.186 30.418 63.832 30.274 63.496 30.118C63.16 29.95 62.878 29.788 62.65 29.632C62.254 30.136 61.87 30.49 61.498 30.694C61.138 30.898 60.718 31 60.238 31C60.046 31 59.92 30.88 59.86 30.64C59.788 30.4 59.752 30.112 59.752 29.776C59.752 29.428 59.788 29.134 59.86 28.894C59.92 28.654 60.046 28.534 60.238 28.534C60.658 28.534 61 28.498 61.264 28.426C61.54 28.342 61.786 28.204 62.002 28.012C62.218 27.808 62.434 27.544 62.65 27.22C62.866 26.884 63.13 26.464 63.442 25.96C63.658 25.612 63.88 25.324 64.108 25.096C64.348 24.856 64.612 24.664 64.9 24.52C65.188 24.376 65.512 24.268 65.872 24.196C66.232 24.124 66.658 24.07 67.15 24.034L67.528 24.358C67.768 25.222 67.942 26.008 68.05 26.716C68.17 27.424 68.23 27.988 68.23 28.408C68.23 28.756 68.176 29.086 68.068 29.398C67.96 29.71 67.822 29.986 67.654 30.226C67.486 30.454 67.3 30.64 67.096 30.784C66.904 30.928 66.718 31 66.538 31ZM66.25 26.23C65.926 26.254 65.662 26.29 65.458 26.338C65.254 26.374 65.062 26.446 64.882 26.554C64.714 26.662 64.546 26.824 64.378 27.04C64.222 27.244 64.03 27.532 63.802 27.904C64.186 28.132 64.648 28.324 65.188 28.48C65.74 28.624 66.244 28.708 66.7 28.732C66.688 28.552 66.664 28.36 66.628 28.156C66.604 27.94 66.568 27.724 66.52 27.508C66.484 27.28 66.442 27.058 66.394 26.842C66.346 26.614 66.298 26.41 66.25 26.23ZM73.0059 31C72.4539 31 71.9859 30.946 71.6019 30.838C71.2299 30.718 70.9239 30.526 70.6839 30.262C70.4559 29.986 70.2879 29.626 70.1799 29.182C70.0719 28.726 70.0179 28.162 70.0179 27.49V23.404C70.0179 23.044 70.0059 22.72 69.9819 22.432C69.9579 22.132 69.9219 21.85 69.8739 21.586C69.8259 21.31 69.7539 21.046 69.6579 20.794C69.5739 20.53 69.4719 20.254 69.3519 19.966L70.8819 18.544C71.0619 18.928 71.2059 19.282 71.3139 19.606C71.4219 19.93 71.4999 20.254 71.5479 20.578C71.6079 20.902 71.6439 21.238 71.6559 21.586C71.6679 21.922 71.6739 22.294 71.6739 22.702V28.066C71.8059 28.258 72.0039 28.384 72.2679 28.444C72.5439 28.504 72.7899 28.534 73.0059 28.534V31ZM72.9998 31C72.8078 31 72.6818 30.88 72.6218 30.64C72.5498 30.4 72.5138 30.112 72.5138 29.776C72.5138 29.428 72.5498 29.134 72.6218 28.894C72.6818 28.654 72.8078 28.534 72.9998 28.534C73.7678 28.534 74.4098 28.516 74.9258 28.48C75.4418 28.444 75.8558 28.366 76.1678 28.246C76.1318 28.03 76.0778 27.784 76.0058 27.508C75.9338 27.232 75.8498 26.956 75.7538 26.68C75.6578 26.392 75.5558 26.116 75.4478 25.852C75.3398 25.576 75.2378 25.33 75.1418 25.114L76.7078 23.998L77.0318 24.124C77.2358 24.628 77.3978 25.18 77.5178 25.78C77.6498 26.38 77.7158 26.962 77.7158 27.526C77.7158 27.874 77.6738 28.216 77.5898 28.552C77.5178 28.876 77.4158 29.176 77.2838 29.452C77.1518 29.728 77.0018 29.968 76.8338 30.172C76.6778 30.376 76.5158 30.526 76.3478 30.622C76.1198 30.754 75.7178 30.85 75.1418 30.91C74.5658 30.97 73.8518 31 72.9998 31ZM75.6638 33.646L74.6198 35.194L72.8918 34.096L73.8638 32.494L75.6638 33.646ZM90.8283 31C90.8403 31.06 90.8463 31.126 90.8463 31.198C90.8583 31.282 90.8643 31.366 90.8643 31.45C90.8643 31.654 90.8523 31.852 90.8283 32.044C90.8043 32.248 90.7743 32.434 90.7383 32.602C90.7023 32.782 90.6603 32.938 90.6123 33.07C90.5763 33.202 90.5403 33.298 90.5043 33.358C90.4323 33.454 90.2643 33.604 90.0003 33.808C89.7483 34.024 89.4063 34.234 88.9743 34.438C88.5423 34.654 88.0323 34.84 87.4443 34.996C86.8563 35.152 86.2023 35.23 85.4823 35.23C84.6903 35.23 84.0423 35.14 83.5383 34.96C83.0463 34.78 82.6563 34.54 82.3683 34.24C82.0923 33.952 81.9003 33.616 81.7923 33.232C81.6963 32.848 81.6483 32.446 81.6483 32.026C81.6483 31.774 81.6603 31.42 81.6843 30.964C81.7203 30.508 81.7623 30.052 81.8103 29.596C81.8583 29.068 81.9123 28.516 81.9723 27.94L83.4123 28.012C83.3883 28.576 83.3583 29.116 83.3223 29.632C83.2983 30.076 83.2683 30.526 83.2323 30.982C83.2083 31.426 83.1903 31.786 83.1783 32.062C83.4183 32.29 83.7123 32.464 84.0603 32.584C84.4083 32.704 84.8823 32.764 85.4823 32.764C85.8183 32.764 86.1663 32.74 86.5263 32.692C86.8983 32.656 87.2583 32.596 87.6063 32.512C87.9543 32.44 88.2843 32.35 88.5963 32.242C88.9083 32.134 89.1783 32.014 89.4063 31.882C89.4183 31.762 89.4243 31.63 89.4243 31.486C89.4243 31.342 89.4183 31.222 89.4063 31.126C89.1303 30.994 88.6803 30.916 88.0563 30.892C87.4443 30.868 86.6463 30.838 85.6623 30.802L85.5723 30.586C85.6683 30.262 85.7583 29.956 85.8423 29.668C85.9383 29.368 86.0223 29.164 86.0943 29.056C86.1423 28.96 86.2023 28.882 86.2743 28.822C86.3463 28.75 86.4483 28.696 86.5803 28.66C86.7243 28.612 86.9103 28.582 87.1383 28.57C87.3663 28.546 87.6663 28.534 88.0383 28.534H91.4223V31H90.8283ZM91.4216 31C91.2296 31 91.1036 30.88 91.0436 30.64C90.9716 30.4 90.9356 30.112 90.9356 29.776C90.9356 29.428 90.9716 29.134 91.0436 28.894C91.1036 28.654 91.2296 28.534 91.4216 28.534H93.0596C93.9836 28.534 94.7276 28.504 95.2916 28.444C95.8556 28.384 96.3116 28.288 96.6596 28.156C96.6596 27.772 96.6416 27.388 96.6056 27.004C96.2576 27.112 95.8976 27.19 95.5256 27.238C95.1656 27.286 94.7096 27.31 94.1576 27.31C93.5096 27.31 93.0176 27.172 92.6816 26.896C92.3576 26.608 92.1956 26.224 92.1956 25.744C92.1956 25.516 92.2316 25.222 92.3036 24.862C92.3756 24.502 92.4656 24.124 92.5736 23.728C92.6816 23.332 92.7956 22.942 92.9156 22.558C93.0476 22.162 93.1676 21.814 93.2756 21.514C93.3476 21.478 93.4136 21.436 93.4736 21.388C93.5216 21.352 93.5636 21.322 93.5996 21.298C93.6476 21.262 93.6716 21.238 93.6716 21.226C94.5716 21.226 95.3036 21.406 95.8676 21.766C96.4316 22.114 96.8696 22.57 97.1816 23.134C97.5056 23.686 97.7276 24.31 97.8476 25.006C97.9676 25.702 98.0276 26.404 98.0276 27.112C98.0276 27.556 97.9856 27.964 97.9016 28.336C97.8176 28.708 97.7036 29.038 97.5596 29.326C97.4276 29.614 97.2716 29.86 97.0916 30.064C96.9236 30.256 96.7556 30.4 96.5876 30.496C96.3116 30.652 95.8676 30.778 95.2556 30.874C94.6436 30.958 93.8276 31 92.8076 31H91.4216ZM94.7516 25.348C95.0396 25.348 95.3156 25.336 95.5796 25.312C95.8436 25.276 96.0836 25.234 96.2996 25.186C96.1196 24.61 95.8376 24.154 95.4536 23.818C95.0816 23.47 94.5596 23.284 93.8876 23.26C93.8516 23.368 93.8036 23.506 93.7436 23.674C93.6956 23.83 93.6476 23.998 93.5996 24.178C93.5516 24.358 93.5036 24.532 93.4556 24.7C93.4196 24.856 93.3896 24.988 93.3656 25.096C93.5216 25.192 93.7016 25.258 93.9056 25.294C94.1216 25.33 94.4036 25.348 94.7516 25.348ZM93.1676 19.084L94.1396 17.482L95.9396 18.616L94.8956 20.164L93.1676 19.084Z" fill="#0B0C17"/>
</svg>
