<svg width="32" height="32" viewBox="0 0 32 32" fill="none" xmlns="http://www.w3.org/2000/svg">
<path d="M8.58442 25.4748C7.89811 25.1327 7.13121 24.5269 6.4375 24.1526C5.30322 23.5408 5.51455 21.7905 5.52138 20.654L5.5283 17.928L5.52356 14.1285C5.52232 12.9234 5.27535 10.9707 6.40925 10.2616C9.18882 8.52339 11.9695 6.76395 14.8001 5.1205C15.8679 4.50053 16.6798 5.205 17.5697 5.75417L19.5587 6.97013L21.7852 8.29732C22.1554 8.51748 22.7089 8.8245 23.0369 9.07201L23.0486 9.10116C21.9038 11.7712 20.8301 14.4654 19.7085 17.1458C19.4371 17.7943 19.1724 18.554 18.8541 19.1632C18.5693 19.3169 18.4724 19.3859 18.2148 19.5853C16.8299 18.308 15.2062 17.1567 13.6926 16.0358C13.5985 15.6444 13.4974 15.3287 13.1125 15.1624C12.91 15.0755 12.6823 15.0823 12.4847 15.1814C12.2836 15.2804 12.132 15.4652 12.0677 15.6896C11.9662 16.036 12.0862 16.2429 12.2369 16.5474C11.6053 17.9262 11.0084 19.5351 10.4223 20.9524C9.81502 22.4209 9.13876 23.9942 8.58442 25.4748Z" fill="#55AA35"/>
<path d="M23.6611 9.42801C24.3042 9.91611 25.483 10.3794 25.6918 11.2306C25.8884 12.0314 25.8318 13.1693 25.832 14.0029L25.8326 20.5741C25.8309 24.1728 25.7707 23.6114 22.8781 25.4054C21.4663 26.2967 20.0433 27.168 18.6094 28.0191C18.0086 28.3838 16.6121 29.3201 16.0403 29.4545C15.7197 29.531 15.3852 29.5108 15.075 29.396C14.5708 29.2111 13.8964 28.744 13.4174 28.4519C12.2763 27.7714 11.1492 27.0648 10.037 26.3327L9.15472 25.8251L11.5826 19.958C11.9457 19.082 12.5733 17.7009 12.856 16.8488C12.9862 16.7908 13.2423 16.6363 13.3733 16.6296C13.5026 16.623 17.5799 19.7945 18.0536 20.1471C18.07 20.2253 18.0889 20.3027 18.1102 20.3794C18.1789 20.6231 18.3022 20.7549 18.5182 20.8711C18.7314 20.9869 18.981 21.0028 19.2058 20.9148C19.41 20.8393 19.5723 20.6727 19.6495 20.4593C19.7838 20.0978 19.6656 19.8236 19.5262 19.5001C19.5243 19.4956 19.5224 19.4912 19.5205 19.4868C20.7725 16.2316 22.313 12.6565 23.6611 9.42801Z" fill="#001B27"/>
<path d="M23.0369 9.07201L23.0486 9.10116C21.9038 11.7712 20.8301 14.4654 19.7085 17.1458C19.4371 17.7943 19.1724 18.554 18.8541 19.1632C18.5693 19.3169 18.4724 19.3859 18.2148 19.5853C16.8299 18.308 15.2062 17.1567 13.6926 16.0358C13.5985 15.6444 13.4974 15.3287 13.1125 15.1624C12.91 15.0755 12.6823 15.0823 12.4847 15.1814C12.2836 15.2804 12.132 15.4652 12.0677 15.6896C11.9662 16.036 12.0862 16.2429 12.2369 16.5474C11.6053 17.9262 11.0084 19.5351 10.4223 20.9524C9.81502 22.4209 9.13876 23.9942 8.58442 25.4748L9.15472 25.8251L11.5826 19.958C11.9457 19.082 12.5733 17.7009 12.856 16.8488C12.9862 16.7908 13.2423 16.6363 13.3733 16.6296C13.5026 16.623 17.5799 19.7945 18.0536 20.1471C18.07 20.2253 18.0889 20.3027 18.1102 20.3794C18.1789 20.6231 18.3022 20.7549 18.5182 20.8711C18.7314 20.9869 18.981 21.0028 19.2058 20.9148C19.41 20.8393 19.5723 20.6727 19.6495 20.4593C19.7838 20.0978 19.6656 19.8236 19.5262 19.5001L19.5205 19.4868C20.7725 16.2316 22.313 12.6565 23.6611 9.42801C23.9998 8.70542 24.311 7.94803 24.5638 7.18921C25.0098 7.33506 25.727 7.67612 26.2014 7.86429C26.2252 6.19612 26.4164 4.18681 26.5 2.5C25.9882 2.91307 25.381 3.47933 24.8719 3.92374C23.9909 4.69852 23.0953 5.45431 22.1852 6.19066C22.7315 6.44148 23.4048 6.69268 23.9695 6.91895C23.6354 7.62513 23.3242 8.34323 23.0369 9.07201Z" fill="#05668D"/>
</svg>
