<svg width="32" height="32" viewBox="0 0 32 32" fill="none" xmlns="http://www.w3.org/2000/svg">
<path d="M7.52505 26.5276C6.74069 26.1475 5.86424 25.4743 5.07143 25.0585C3.77511 24.3787 4.01663 22.4339 4.02443 21.1711L4.03234 18.1422L4.02692 13.9206C4.02551 12.5815 3.74326 10.4119 5.03914 9.62396C8.21579 7.69265 11.3937 5.73772 14.6287 3.91166C15.849 3.22281 16.777 4.00556 17.794 4.61574L20.0671 5.96681L22.6117 7.44146C23.0347 7.68609 23.6674 8.02723 24.0422 8.30223L24.0556 8.33462C22.7472 11.3013 21.5202 14.2949 20.2383 17.2731C19.9282 17.9936 19.6256 18.8378 19.2618 19.5147C18.9363 19.6854 18.8256 19.7621 18.5312 19.9837C16.9485 18.5645 15.0928 17.2852 13.3629 16.0397C13.2554 15.6049 13.1399 15.2541 12.7 15.0694C12.4686 14.9728 12.2083 14.9803 11.9825 15.0904C11.7527 15.2005 11.5795 15.4058 11.506 15.6551C11.3899 16.04 11.5271 16.2699 11.6993 16.6082C10.9775 18.1402 10.2953 19.9279 9.62544 21.5026C8.93145 23.1343 8.15858 24.8824 7.52505 26.5276Z" fill="#55AA35"/>
<path d="M24.7556 8.69778C25.4905 9.24012 26.8377 9.75486 27.0764 10.7006C27.301 11.5904 27.2363 12.8547 27.2366 13.781L27.2373 21.0824C27.2353 25.0809 27.1665 24.4571 23.8607 26.4504C22.2472 27.4407 20.6209 28.4089 18.9822 29.3546C18.2956 29.7598 16.6995 30.8002 16.0461 30.9494C15.6796 31.0344 15.2974 31.012 14.9428 30.8844C14.3666 30.679 13.5959 30.16 13.0484 29.8355C11.7443 29.0793 10.4562 28.2943 9.18514 27.4808L8.17682 26.9168L10.9516 20.3978C11.3665 19.4244 12.0838 17.8899 12.4069 16.9431C12.5556 16.8787 12.8483 16.707 12.998 16.6995C13.1458 16.6922 17.8056 20.2161 18.347 20.6079C18.3658 20.6948 18.3873 20.7808 18.4117 20.866C18.4902 21.1368 18.6311 21.2832 18.8779 21.4124C19.1216 21.541 19.4068 21.5586 19.6638 21.4609C19.8971 21.377 20.0826 21.1919 20.1709 20.9547C20.3243 20.5531 20.1893 20.2484 20.03 19.889C20.0278 19.884 20.0256 19.8791 20.0234 19.8742C21.4543 16.2573 23.2148 12.285 24.7556 8.69778Z" fill="#001B27"/>
<path d="M24.0422 8.30223L24.0556 8.33462C22.7472 11.3013 21.5202 14.2949 20.2383 17.2731C19.9282 17.9936 19.6256 18.8378 19.2618 19.5147C18.9363 19.6854 18.8256 19.7621 18.5312 19.9837C16.9485 18.5645 15.0928 17.2852 13.3629 16.0397C13.2554 15.6049 13.1399 15.2541 12.7 15.0694C12.4686 14.9728 12.2083 14.9803 11.9825 15.0904C11.7527 15.2005 11.5795 15.4058 11.506 15.6551C11.3899 16.04 11.5271 16.2699 11.6993 16.6082C10.9775 18.1402 10.2953 19.9279 9.62544 21.5026C8.93145 23.1343 8.15858 24.8824 7.52505 26.5276L8.17682 26.9168L10.9516 20.3978C11.3665 19.4244 12.0838 17.8899 12.4069 16.9431C12.5556 16.8787 12.8483 16.707 12.998 16.6995C13.1458 16.6922 17.8056 20.2161 18.347 20.6079C18.3658 20.6948 18.3873 20.7808 18.4117 20.866C18.4902 21.1368 18.6311 21.2832 18.8779 21.4124C19.1216 21.541 19.4068 21.5586 19.6638 21.4609C19.8971 21.377 20.0826 21.1919 20.1709 20.9547C20.3243 20.5531 20.1893 20.2484 20.03 19.889L20.0234 19.8742C21.4543 16.2573 23.2148 12.285 24.7556 8.69778C25.1426 7.89491 25.4983 7.05336 25.7872 6.21023C26.2969 6.37229 27.1166 6.75124 27.6587 6.96032C27.686 5.1068 27.9044 2.87423 28 1C27.4151 1.45897 26.7211 2.08815 26.1393 2.58194C25.1325 3.4428 24.1089 4.28257 23.0688 5.10073C23.6931 5.37942 24.4626 5.65853 25.108 5.90995C24.7262 6.69458 24.3706 7.49248 24.0422 8.30223Z" fill="#05668D"/>
</svg>
